<svg width="704px" height="324px" viewBox="0 0 704 324" version="1.1" xmlns="http://www.w3.org/2000/svg" xmlns:xlink="http://www.w3.org/1999/xlink">

    <g stroke="none" stroke-width="1" fill="#EDEFF7"fill-rule="evenodd">
    
                <path d="M92.4300874,113.138838 C113.291149,113.138838 131.183253,117.7925 146.106935,127.099965 C161.030618,136.40743 172.343562,148.843941 180.046108,164.409874 C187.748654,179.975806 191.599869,197.386923 191.599869,216.643746 C191.599869,236.542464 187.026551,254.6757 177.879778,271.044 C168.733005,287.4123 156.216555,300.330226 140.330055,309.798164 C124.443554,319.266102 106.55145,324 86.653207,324 C70.2852971,324 54.2385674,320.951049 38.5125364,314.853055 C22.7865054,308.755061 9.94912166,300.891976 0,291.263564 L25.0331487,254.675782 C31.4519368,262.057565 39.9567036,267.994996 50.5477041,272.488255 C61.1387045,276.981514 71.8900134,279.228109 82.8019533,279.228109 C100.453621,279.228109 114.975911,273.531385 126.36926,262.137764 C137.762609,250.744143 143.459198,236.061036 143.459198,218.088001 C143.459198,198.51023 138.083544,182.703825 127.332074,170.66831 C116.580603,158.632795 101.255977,152.615128 81.3577332,152.615128 C70.7667327,152.615128 60.5770594,154.139604 50.7884074,157.188601 C40.9997555,160.237598 30.8100821,164.811025 20.2190816,170.909019 L19.7376749,170.909019 L19.7376749,3.37549289 L171.380787,3.37549289 L171.380787,48.1473835 L60.1758382,48.1473835 L60.1758382,116.990183 C70.4458992,114.422607 81.1972081,113.138838 92.4300874,113.138838 Z M351.518593,321.592909 C325.522501,321.592909 302.495444,315.093829 282.436731,302.095473 C262.378018,289.097117 246.732457,270.402231 235.499577,246.010255 C224.266698,221.618279 218.650343,193.054419 218.650343,160.317819 C218.650343,108.003449 230.444689,68.1263751 254.033735,40.6854017 C277.622782,13.2444284 310.11741,-0.31538142 351.518593,0.00556563683 C377.514685,0.00556563683 400.541743,6.4244105 420.600456,19.2622928 C440.659169,32.1001751 456.30473,50.7148252 467.537609,75.1068015 C478.770489,99.4987779 484.386844,127.902166 484.386844,160.317819 C484.386844,193.696313 478.770489,222.581115 467.537609,246.973091 C456.30473,271.365068 440.659169,289.979718 420.600456,302.8176 C400.541743,315.655482 377.514685,321.913856 351.518593,321.592909 Z M351.037187,276.821018 C378.317036,276.821018 399.258019,266.229924 413.860762,245.047419 C428.463505,223.864913 435.925234,195.301053 436.246173,159.354983 C435.925234,124.371754 428.463505,96.530014 413.860762,75.8289288 C399.258019,55.1278436 378.317036,44.7774563 351.037187,44.7774563 C324.078276,44.7774563 303.377995,55.2080792 288.935722,76.0696379 C274.493448,96.9311966 267.111953,125.013643 266.791013,160.317819 C267.111953,195.942943 274.493448,224.266096 288.935722,245.288128 C303.377995,266.31016 324.078276,276.821018 351.037187,276.821018 Z M620.235233,119.878692 C644.626628,121.16248 664.68504,129.506979 680.411071,144.912437 C696.137102,160.317896 704,183.586209 704,214.718073 C704,236.542473 699.025514,255.718772 689.076392,272.247546 C679.12727,288.776319 665.567784,301.533773 648.397526,310.520291 C631.227267,319.506809 612.37236,324 591.832238,324 C576.748085,324 561.503692,320.790578 546.098601,314.371636 C530.693509,307.952695 518.016593,299.608197 508.067471,289.337891 L532.137806,250.824437 C538.235655,258.527166 546.740422,265.106482 557.652362,270.562582 C568.564301,276.018682 579.636545,278.746691 590.869424,278.746691 C609.162971,278.746691 624.567831,272.648789 637.084468,260.4528 C649.601105,248.256812 655.859329,232.049229 655.859329,211.829564 C655.859329,193.856529 650.483675,179.494364 639.732205,168.742637 C628.980735,157.990911 614.297977,152.615128 595.683491,152.615128 C581.562157,152.615128 567.922437,155.022195 554.763921,159.836401 L553.319701,157.910728 L624.086487,48.1473835 L526.842332,48.1473835 L526.842332,3.37549289 L692.927646,3.37549289 L620.235233,119.878692 Z" id="503"></path>
      
    </g>
</svg>
