<svg width="1366" height="4499" viewBox="0 0 1366 4499" fill="none" xmlns="http://www.w3.org/2000/svg">
<path fill-rule="evenodd" clip-rule="evenodd" d="M-196 1137.58L-102.59 1399L200 1117.34L-0.30275 1016L-196 1137.58Z" fill="#F0F4F8"/>
<path fill-rule="evenodd" clip-rule="evenodd" d="M-239 870.794L-118.684 1207.94L271.068 844.701L13.0679 714L-239 870.794Z" stroke="#F6EAE1" stroke-width="25" stroke-linejoin="round"/>
<path fill-rule="evenodd" clip-rule="evenodd" d="M34.8921 1016L56 1086.24L-24 1124.53L-6 1028.24L34.8921 1016Z" fill="#99E0BD"/>
<path fill-rule="evenodd" clip-rule="evenodd" d="M1542 2843.58L1448.59 3105L1146 2823.34L1346.3 2722L1542 2843.58Z" fill="#F0F4F8"/>
<path fill-rule="evenodd" clip-rule="evenodd" d="M1494 2823.79L1373.68 3160.94L983.932 2797.7L1241.93 2667L1494 2823.79Z" stroke="#F6EAE1" stroke-width="25" stroke-linejoin="round"/>
<path fill-rule="evenodd" clip-rule="evenodd" d="M1220.11 2969L1199 3039.24L1279 3077.53L1261 2981.24L1220.11 2969Z" fill="#99E0BD"/>
<path fill-rule="evenodd" clip-rule="evenodd" d="M1236 469.639L1393.95 683.639L1701.29 228L1236 469.639Z" fill="#F0F4F8"/>
<path fill-rule="evenodd" clip-rule="evenodd" d="M1156 453.639L1313.95 667.639L1621.29 212L1156 453.639Z" stroke="#F6E0E7" stroke-width="25" stroke-linejoin="round"/>
<path d="M1111 528.829L1214.16 483" stroke="#99E0BD" stroke-width="3" stroke-linecap="round" stroke-linejoin="round"/>
<path d="M1121.57 540.701L1224.73 494.872" stroke="#99E0BD" stroke-width="3" stroke-linecap="round" stroke-linejoin="round"/>
<path d="M1132.57 552.701L1235.73 506.872" stroke="#99E0BD" stroke-width="3" stroke-linecap="round" stroke-linejoin="round"/>
<path fill-rule="evenodd" clip-rule="evenodd" d="M122 3297.64L-35.9463 3511.64L-343.294 3056L122 3297.64Z" fill="#F0F4F8"/>
<path fill-rule="evenodd" clip-rule="evenodd" d="M202 3281.64L44.0537 3495.64L-263.294 3040L202 3281.64Z" stroke="#F6E0E7" stroke-width="25" stroke-linejoin="round"/>
<path d="M247 3356.83L143.839 3311" stroke="#99E0BD" stroke-width="3" stroke-linecap="round" stroke-linejoin="round"/>
<path d="M236.43 3368.7L133.268 3322.87" stroke="#99E0BD" stroke-width="3" stroke-linecap="round" stroke-linejoin="round"/>
<path d="M225.43 3380.7L122.268 3334.87" stroke="#99E0BD" stroke-width="3" stroke-linecap="round" stroke-linejoin="round"/>
<path d="M207 2144.83L103.839 2099" stroke="#99E0BD" stroke-width="3" stroke-linecap="round" stroke-linejoin="round"/>
<path d="M196.43 2156.7L93.2682 2110.87" stroke="#99E0BD" stroke-width="3" stroke-linecap="round" stroke-linejoin="round"/>
<path d="M185.43 2168.7L82.2682 2122.87" stroke="#99E0BD" stroke-width="3" stroke-linecap="round" stroke-linejoin="round"/>
<path fill-rule="evenodd" clip-rule="evenodd" d="M-56 222C5.3036 222 55 172.304 55 111C55 49.6964 5.3036 0 -56 0C-117.304 0 -167 49.6964 -167 111C-167 172.304 -117.304 222 -56 222Z" fill="#F0F4F8"/>
<path fill-rule="evenodd" clip-rule="evenodd" d="M-18 424C72.0224 424 145 351.022 145 261C145 170.978 72.0224 98 -18 98C-108.022 98 -181 170.978 -181 261C-181 351.022 -108.022 424 -18 424Z" stroke="#D8F1F5" stroke-width="25"/>
<path fill-rule="evenodd" clip-rule="evenodd" d="M101.892 337.758L123 408L61 380.641V350L101.892 337.758Z" fill="#F2BC75"/>
<path d="M36 285V313.023H61.2333V339.152H85.9463V372.665H120.875" stroke="#66AFB4" stroke-width="3" stroke-linecap="round" stroke-linejoin="round"/>
<path d="M102.875 350.665V322.642H77.6416V296.513H52.9286V263H18" stroke="#66AFB4" stroke-width="3" stroke-linecap="round" stroke-linejoin="round"/>
<path fill-rule="evenodd" clip-rule="evenodd" d="M1231 4044C1292.3 4044 1342 4093.7 1342 4155C1342 4216.3 1292.3 4266 1231 4266C1169.7 4266 1120 4216.3 1120 4155C1120 4093.7 1169.7 4044 1231 4044Z" fill="#F0F4F8"/>
<path fill-rule="evenodd" clip-rule="evenodd" d="M1203 4160C1293.02 4160 1366 4232.98 1366 4323C1366 4413.02 1293.02 4486 1203 4486C1112.98 4486 1040 4413.02 1040 4323C1040 4232.98 1112.98 4160 1203 4160Z" stroke="#D8F1F5" stroke-width="25"/>
<path fill-rule="evenodd" clip-rule="evenodd" d="M1322.89 4246.24L1344 4176L1282 4203.36V4234L1322.89 4246.24Z" fill="#F2BC75"/>
<path d="M1257 4299V4270.98H1282.23V4244.85H1306.95V4211.33H1341.87" stroke="#66AFB4" stroke-width="3" stroke-linecap="round" stroke-linejoin="round"/>
<path d="M1323.87 4233.33V4261.36H1298.64V4287.49H1273.93V4321H1239" stroke="#66AFB4" stroke-width="3" stroke-linecap="round" stroke-linejoin="round"/>
<path fill-rule="evenodd" clip-rule="evenodd" d="M1307 1390C1368.3 1390 1418 1340.3 1418 1279C1418 1217.7 1368.3 1168 1307 1168C1245.7 1168 1196 1217.7 1196 1279C1196 1340.3 1245.7 1390 1307 1390Z" fill="#F0F4F8"/>
<path fill-rule="evenodd" clip-rule="evenodd" d="M1455 1481C1545.02 1481 1618 1408.02 1618 1318C1618 1227.98 1545.02 1155 1455 1155C1364.98 1155 1292 1227.98 1292 1318C1292 1408.02 1364.98 1481 1455 1481Z" stroke="#D8F1F5" stroke-width="25"/>
<path d="M1273 1151V1179.02H1298.23V1205.15H1322.95V1238.67H1357.87" stroke="#66AFB4" stroke-width="3" stroke-linecap="round" stroke-linejoin="round"/>
<path d="M1339.87 1216.67V1188.64H1314.64V1162.51H1289.93V1129H1255" stroke="#66AFB4" stroke-width="3" stroke-linecap="round" stroke-linejoin="round"/>
</svg>
