<svg width="352" height="455" viewBox="0 0 352 455" fill="none" xmlns="http://www.w3.org/2000/svg">
<path fill-rule="evenodd" clip-rule="evenodd" d="M204 0C265.304 0 315 49.6964 315 111C315 172.304 265.304 222 204 222C142.696 222 93 172.304 93 111C93 49.6964 142.696 0 204 0Z" fill="#F0F4F8"/>
<path fill-rule="evenodd" clip-rule="evenodd" d="M176 116C266.022 116 339 188.978 339 279C339 369.022 266.022 442 176 442C85.9776 442 13 369.022 13 279C13 188.978 85.9776 116 176 116Z" stroke="#D8F1F5" stroke-width="25"/>
<path fill-rule="evenodd" clip-rule="evenodd" d="M295.892 202.242L317 132L255 159.359V190L295.892 202.242Z" fill="#F2BC75"/>
<path d="M230 255V226.977H255.233V200.848H279.946V167.335H314.875" stroke="#66AFB4" stroke-width="3" stroke-linecap="round" stroke-linejoin="round"/>
<path d="M296.875 189.335V217.358H271.642V243.487H246.929V277H212" stroke="#66AFB4" stroke-width="3" stroke-linecap="round" stroke-linejoin="round"/>
</svg>
