<svg width="435" height="367" viewBox="0 0 435 367" fill="none" xmlns="http://www.w3.org/2000/svg">
<path fill-rule="evenodd" clip-rule="evenodd" d="M111 263C172.304 263 222 213.304 222 152C222 90.6964 172.304 41 111 41C49.6964 41 0 90.6964 0 152C0 213.304 49.6964 263 111 263Z" fill="#F0F4F8"/>
<path fill-rule="evenodd" clip-rule="evenodd" d="M259 354C349.022 354 422 281.022 422 191C422 100.978 349.022 28 259 28C168.978 28 96 100.978 96 191C96 281.022 168.978 354 259 354Z" stroke="#D8F1F5" stroke-width="25"/>
<path d="M77 24V52.0227H102.233V78.1521H126.946V111.665H161.875" stroke="#66AFB4" stroke-width="3" stroke-linecap="round" stroke-linejoin="round"/>
<path d="M143.875 89.665V61.6423H118.642V35.5129H93.9285V2H59" stroke="#66AFB4" stroke-width="3" stroke-linecap="round" stroke-linejoin="round"/>
</svg>
