<svg width="162" height="157" viewBox="0 0 162 157" fill="none" xmlns="http://www.w3.org/2000/svg">
<path fill-rule="evenodd" clip-rule="evenodd" d="M0 49.837L38.2131 157L162 41.5433L80.058 0L0 49.837Z" fill="#F0F4F8"/>
<path d="M96 21V39.5401H112.649V56.8275H128.954V79H152" stroke="#66AFB4" stroke-width="3" stroke-linecap="round" stroke-linejoin="round"/>
<path d="M139 63V44.4599H122.351V27.1725H106.046V5H83" stroke="#66AFB4" stroke-width="3" stroke-linecap="round" stroke-linejoin="round"/>
<path fill-rule="evenodd" clip-rule="evenodd" d="M101.13 39.5768H116.121C121.323 39.5768 125.579 43.853 125.579 49.0793V106.095C125.579 111.321 121.323 115.598 116.121 115.598H40.458C35.2561 115.598 31 111.321 31 106.095V58.582H45.1869V44.3281H59.3737V30.0742H92.4763L101.13 39.5768ZM54.6446 77.5871C54.6446 90.7007 65.2375 101.344 78.2894 101.344C91.3414 101.344 101.934 90.7009 101.934 77.5873C101.934 64.4737 91.3414 53.8307 78.2894 53.8307C65.2375 53.8307 54.6446 64.4735 54.6446 77.5871Z" fill="#F0F4F8"/>
<path fill-rule="evenodd" clip-rule="evenodd" d="M92.317 31.8307H107.308C112.51 31.8307 116.766 36.1069 116.766 41.3332V98.3488C116.766 103.575 112.51 107.851 107.308 107.851H31.6447C26.4428 107.851 22.1868 103.575 22.1868 98.3488V50.8359H36.3736V36.582H50.5605V22.3281H83.6631L92.317 31.8307ZM45.8314 69.841C45.8314 82.9546 56.4243 93.5975 69.4762 93.5975C82.5281 93.5975 93.121 82.9548 93.121 69.8412C93.121 56.7276 82.5281 46.0846 69.4762 46.0846C56.4243 46.0846 45.8314 56.7274 45.8314 69.841Z" fill="#2E469D"/>
<path d="M21.1869 45.0846H30.6448V30.8307H44.8317V21.3281H30.6448V7.07416H21.1869V21.3281H7V30.8307H21.1869V45.0846Z" fill="#2E469D"/>
<path d="M69.4762 54.637C61.106 54.637 54.3435 61.4314 54.3435 69.8412C54.3435 78.251 61.106 85.0454 69.4762 85.0454C77.8465 85.0454 84.6089 78.251 84.6089 69.8412C84.6089 61.4314 77.8465 54.637 69.4762 54.637Z" fill="#2E469D"/>
</svg>
