<svg width="352" height="437" viewBox="0 0 352 437" fill="none" xmlns="http://www.w3.org/2000/svg">
<path fill-rule="evenodd" clip-rule="evenodd" d="M138 222C199.304 222 249 172.304 249 111C249 49.6964 199.304 0 138 0C76.6964 0 27 49.6964 27 111C27 172.304 76.6964 222 138 222Z" fill="#F0F4F8"/>
<path fill-rule="evenodd" clip-rule="evenodd" d="M176 424C266.022 424 339 351.022 339 261C339 170.978 266.022 98 176 98C85.9776 98 13 170.978 13 261C13 351.022 85.9776 424 176 424Z" stroke="#D8F1F5" stroke-width="25"/>
<path fill-rule="evenodd" clip-rule="evenodd" d="M295.892 337.758L317 408L255 380.641V350L295.892 337.758Z" fill="#F2BC75"/>
<path d="M230 285V313.023H255.233V339.152H279.946V372.665H314.875" stroke="#66AFB4" stroke-width="3" stroke-linecap="round" stroke-linejoin="round"/>
<path d="M296.875 350.665V322.642H271.642V296.513H246.929V263H212" stroke="#66AFB4" stroke-width="3" stroke-linecap="round" stroke-linejoin="round"/>
</svg>
