<svg xmlns="http://www.w3.org/2000/svg" width="16" height="16" viewBox="0 0 16 16">
    <path fill="#B8BBC3" fill-rule="nonzero" d="M3.551 5.278v9.954H.237V5.278H3.55zm.211-3.074c.01.954-.713 1.718-1.868 1.718h-.02C.759 3.922.046 3.158.046 2.204.046 1.23.789.487 1.914.487c1.135 0 1.838.743 1.848 1.717zm4.922 4.489c.436-.682 1.223-1.646 2.983-1.646 2.18 0 3.807 1.426 3.807 4.48v5.705H12.17V9.908c0-1.335-.482-2.25-1.678-2.25-.914 0-1.456.613-1.697 1.206-.08.22-.11.512-.11.813v5.555H5.378c.04-9.02 0-9.954 0-9.954h3.305v1.415z"/>
</svg>
