<svg width="195" height="32" viewBox="0 0 195 32" fill="none" xmlns="http://www.w3.org/2000/svg">
<path fill-rule="evenodd" clip-rule="evenodd" d="M96.8022 2.2272C96.6076 2.66752 96.5103 3.13344 96.5103 3.62496C96.5103 4.13696 96.6076 4.61312 96.8022 5.05344C96.9967 5.49376 97.263 5.87264 97.6009 6.19008C97.9388 6.50752 98.333 6.7584 98.7836 6.94272C99.2342 7.12704 99.7154 7.2192 100.227 7.2192C100.719 7.2192 101.18 7.12704 101.61 6.94272C102.04 6.7584 102.424 6.50752 102.762 6.19008C103.1 5.87264 103.366 5.49376 103.561 5.05344C103.755 4.61312 103.852 4.13696 103.852 3.62496C103.852 3.13344 103.755 2.66752 103.561 2.2272C103.366 1.78688 103.1 1.40288 102.762 1.0752C102.424 0.747518 102.04 0.486401 101.61 0.29184C101.18 0.097279 100.719 0 100.227 0C99.7154 0 99.2342 0.097279 98.7836 0.29184C98.333 0.486401 97.9388 0.747518 97.6009 1.0752C97.263 1.40288 96.9967 1.78688 96.8022 2.2272ZM31.3144 8.47872C30.5669 8.06912 29.63 7.86432 28.5036 7.86432C27.4796 7.86432 26.5887 8.08448 25.8309 8.5248C25.0732 8.96512 24.4895 9.48224 24.0799 10.0762H24.0184V1.2288H16.9221V24.4531H24.0184V15.8822C24.0184 15.104 24.1823 14.5357 24.51 14.1773C24.8377 13.8189 25.2063 13.6397 25.6159 13.6397C26.1279 13.6397 26.5119 13.8035 26.7679 14.1312C27.0239 14.4589 27.1519 15.0323 27.1519 15.8515V24.4531H34.2789V14.6227C34.2789 13.824 34.1919 13.0253 34.0178 12.2266C33.8437 11.4278 33.5365 10.7059 33.0962 10.0608C32.6559 9.41568 32.062 8.88832 31.3144 8.47872ZM6.5022 24.4531C7.64908 24.8627 8.90859 25.0675 10.2808 25.0675C11.4686 25.0675 12.6001 24.8832 13.6753 24.5146C14.7505 24.1459 15.626 23.6954 16.3019 23.1629L12.7384 18.1862C12.4926 18.4525 12.1752 18.6624 11.786 18.816C11.3969 18.9696 10.9976 19.0464 10.588 19.0464C10.2398 19.0464 9.90188 18.9901 9.5742 18.8774C9.24651 18.7648 8.95468 18.601 8.69868 18.3859C8.44267 18.1709 8.23276 17.8944 8.06892 17.5565C7.90508 17.2186 7.82316 16.8243 7.82316 16.3738C7.82316 15.9232 7.90508 15.529 8.06892 15.191C8.23276 14.8531 8.44267 14.5664 8.69868 14.3309C8.95468 14.0954 9.24651 13.9213 9.5742 13.8086C9.90188 13.696 10.2398 13.6397 10.588 13.6397C10.9566 13.6397 11.3406 13.7165 11.74 13.8701C12.1393 14.0237 12.4619 14.2438 12.7076 14.5306L16.2404 9.43104C15.9332 9.18528 15.5595 8.96 15.1192 8.7552C14.6788 8.5504 14.1976 8.36608 13.6753 8.20224C13.1531 8.0384 12.6104 7.9104 12.0472 7.81824C11.484 7.72608 10.9259 7.68 10.3729 7.68C9.02123 7.68 7.76684 7.8848 6.60972 8.2944C5.45259 8.704 4.44396 9.28768 3.5838 10.0454C2.72363 10.8032 2.05292 11.7197 1.57164 12.7949C1.09035 13.8701 0.849716 15.063 0.849716 16.3738C0.849716 17.705 1.08523 18.903 1.55628 19.968C2.02732 21.033 2.68267 21.9443 3.52236 22.7021C4.36204 23.4598 5.35531 24.0435 6.5022 24.4531ZM53.7613 24.4531H46.8493V22.6714H46.7878C46.3782 23.2653 45.7689 23.7824 44.96 24.2227C44.151 24.663 43.2243 24.8832 42.1798 24.8832C41.0329 24.8832 40.0909 24.6835 39.3536 24.2842C38.6163 23.8848 38.0275 23.3626 37.5872 22.7174C37.1469 22.0723 36.8397 21.3453 36.6656 20.5363C36.4915 19.7274 36.4045 18.9235 36.4045 18.1248V8.2944H43.5315V16.8346C43.5315 17.6538 43.6595 18.2272 43.9155 18.5549C44.1715 18.8826 44.5555 19.0464 45.0675 19.0464C45.5385 19.0464 45.9225 18.857 46.2195 18.4781C46.5165 18.0992 46.6649 17.5514 46.6649 16.8346V8.2944H53.7613V24.4531ZM65.2871 24.4378C66.0654 24.7347 66.8538 24.8832 67.6525 24.8832C68.8609 24.8832 69.9207 24.6374 70.8321 24.1459C71.7434 23.6544 72.5063 23.0042 73.1207 22.1952C73.7351 21.3862 74.201 20.4698 74.5185 19.4458C74.8359 18.4218 74.9946 17.3773 74.9946 16.3123C74.9946 15.2678 74.8359 14.2438 74.5185 13.2403C74.201 12.2368 73.7351 11.3357 73.1207 10.537C72.5063 9.73824 71.7383 9.09312 70.8167 8.6016C69.8951 8.11008 68.8302 7.86432 67.6218 7.86432C66.8231 7.86432 66.0039 8.0384 65.1642 8.38656C64.3245 8.73472 63.6078 9.24672 63.0138 9.92256H62.9524V8.2944H56.2862V31.8259H63.321V23.1936H63.3825C63.874 23.7261 64.5089 24.1408 65.2871 24.4378ZM68.4206 16.3123C68.4206 15.5955 68.1953 14.9709 67.7447 14.4384C67.2942 13.9059 66.6388 13.6397 65.7786 13.6397C64.9389 13.6397 64.2682 13.9059 63.7665 14.4384C63.2647 14.9709 63.0138 15.5955 63.0138 16.3123C63.0138 17.0701 63.2647 17.7152 63.7665 18.2477C64.2682 18.7802 64.9389 19.0464 65.7786 19.0464C66.6388 19.0464 67.2942 18.7853 67.7447 18.263C68.1953 17.7408 68.4206 17.0906 68.4206 16.3123ZM91.2667 8.47872C90.5192 8.06912 89.5823 7.86432 88.4558 7.86432C87.4318 7.86432 86.541 8.08448 85.7832 8.5248C85.0254 8.96512 84.4418 9.48224 84.0322 10.0762H83.9707V1.2288H76.8744V24.4531H83.9707V15.8822C83.9707 15.104 84.1346 14.5357 84.4622 14.1773C84.7899 13.8189 85.1586 13.6397 85.5682 13.6397C86.0802 13.6397 86.4642 13.8035 86.7202 14.1312C86.9762 14.4589 87.1042 15.0323 87.1042 15.8515V24.4531H94.2312V14.6227C94.2312 13.824 94.1442 13.0253 93.9701 12.2266C93.796 11.4278 93.4888 10.7059 93.0485 10.0608C92.6082 9.41568 92.0143 8.88832 91.2667 8.47872ZM96.6332 8.2944H103.73V24.4531H96.6332V8.2944ZM106.285 8.2944H113.197V10.0762H113.259C113.668 9.48224 114.277 8.96512 115.086 8.5248C115.895 8.08448 116.822 7.86432 117.867 7.86432C118.993 7.86432 119.93 8.06912 120.677 8.47872C121.425 8.88832 122.019 9.41568 122.459 10.0608C122.9 10.7059 123.207 11.4278 123.381 12.2266C123.555 13.0253 123.642 13.824 123.642 14.6227V24.4531H116.515V15.8515C116.515 15.0323 116.387 14.4589 116.131 14.1312C115.875 13.8035 115.491 13.6397 114.979 13.6397C114.508 13.6397 114.124 13.8291 113.827 14.208C113.53 14.5869 113.381 15.1347 113.381 15.8515V24.4531H106.285V8.2944ZM140.406 8.47872C139.658 8.06912 138.721 7.86432 137.595 7.86432C136.571 7.86432 135.68 8.08448 134.922 8.5248C134.164 8.96512 133.581 9.48224 133.171 10.0762H133.11V1.2288H126.013V24.4531H133.11V15.8822C133.11 15.104 133.273 14.5357 133.601 14.1773C133.929 13.8189 134.297 13.6397 134.707 13.6397C135.219 13.6397 135.603 13.8035 135.859 14.1312C136.115 14.4589 136.243 15.0323 136.243 15.8515V24.4531H143.37V14.6227C143.37 13.824 143.283 13.0253 143.109 12.2266C142.935 11.4278 142.628 10.7059 142.187 10.0608C141.747 9.41568 141.153 8.88832 140.406 8.47872ZM152.776 24.8832C150.605 24.8832 148.998 24.4173 147.953 23.4854C146.909 22.5536 146.386 21.1047 146.386 19.1386V13.3632H144.113V8.2944H146.356V4.66944H153.237V8.2944H156.739V13.3632H153.237V17.664C153.237 18.4422 153.406 18.9696 153.744 19.2461C154.082 19.5226 154.548 19.6608 155.142 19.6608C155.367 19.6608 155.602 19.6403 155.848 19.5994C156.094 19.5584 156.289 19.5174 156.432 19.4765V24.3302C156.063 24.4941 155.546 24.6272 154.881 24.7296C154.215 24.832 153.514 24.8832 152.776 24.8832ZM172.335 8.47872C171.588 8.06912 170.651 7.86432 169.524 7.86432C168.5 7.86432 167.61 8.08448 166.852 8.5248C166.094 8.96512 165.51 9.48224 165.101 10.0762H165.039V1.2288H157.943V24.4531H165.039V15.8822C165.039 15.104 165.203 14.5357 165.531 14.1773C165.859 13.8189 166.227 13.6397 166.637 13.6397C167.149 13.6397 167.533 13.8035 167.789 14.1312C168.045 14.4589 168.173 15.0323 168.173 15.8515V24.4531H175.3V14.6227C175.3 13.824 175.213 13.0253 175.039 12.2266C174.865 11.4278 174.557 10.7059 174.117 10.0608C173.677 9.41568 173.083 8.88832 172.335 8.47872ZM188.423 14.2234C188.423 13.6499 188.213 13.1789 187.793 12.8102C187.374 12.4416 186.805 12.2573 186.088 12.2573C185.31 12.2573 184.706 12.4723 184.276 12.9024C183.846 13.3325 183.6 13.7728 183.539 14.2234H188.423ZM194.521 17.3414C194.531 17.065 194.536 16.7936 194.536 16.5274C194.536 15.2576 194.332 14.08 193.922 12.9946C193.512 11.9091 192.934 10.9722 192.186 10.1837C191.439 9.3952 190.543 8.7808 189.498 8.34048C188.454 7.90016 187.297 7.68 186.027 7.68C184.778 7.68 183.605 7.8848 182.51 8.2944C181.414 8.704 180.462 9.28256 179.653 10.0301C178.844 10.7776 178.204 11.689 177.733 12.7642C177.262 13.8394 177.026 15.0426 177.026 16.3738C177.026 17.8074 177.282 19.0669 177.794 20.1523C178.306 21.2378 178.987 22.144 179.837 22.871C180.687 23.5981 181.665 24.1459 182.771 24.5146C183.877 24.8832 185.013 25.0675 186.181 25.0675C187.983 25.0675 189.565 24.7296 190.927 24.0538C192.289 23.3779 193.328 22.4563 194.045 21.289L189.007 18.7392C188.782 19.0259 188.449 19.287 188.008 19.5226C187.568 19.7581 187.02 19.8758 186.365 19.8758C186.037 19.8758 185.715 19.8349 185.397 19.753C185.08 19.671 184.793 19.5482 184.537 19.3843C184.281 19.2205 184.066 19.0259 183.892 18.8006C183.718 18.5754 183.621 18.3194 183.6 18.0326H194.475C194.495 17.8483 194.511 17.6179 194.521 17.3414Z" fill="#40445B"/>
</svg>
