<svg xmlns="http://www.w3.org/2000/svg" xmlns:xlink="http://www.w3.org/1999/xlink" width="136" height="42" viewBox="0 0 136 42">
    <defs>
        <path id="a" d="M.045.001h12.673v10.283H.045z"/>
        <path id="c" d="M.175.026h13.489v11.26H.174z"/>
        <path id="e" d="M.118.031h9.014v29.852H.118z"/>
        <path id="g" d="M0 .042h5.437v24.325H0z"/>
        <path id="i" d="M0 .084h7.82V11.83H0z"/>
        <path id="k" d="M1 11.916h87.898V.17H1z"/>
    </defs>
    <g fill="none" fill-rule="evenodd">
        <path fill="#ffffff" d="M25.593 23.822l6.385 3.707c.208-1.381.316-2.788.321-4.21l-6.92-4.003c.182 1.51.256 3.018.214 4.506M28.303 28.938l-3.008-1.747a27.097 27.097 0 0 1-.903 4.02l3.911-2.273z"/>
        <g transform="translate(16.898 .184)">
            <mask id="b" fill="#fff">
                <use xlink:href="#a"/>
            </mask>
            <path fill="#ffffff" d="M7.033 6.978l5.685 3.306a35.194 35.194 0 0 0-2.681-5.072L1.076.002.046.6a36.537 36.537 0 0 1 3.116 4.126c.92.536 2.168 1.26 3.87 2.252" mask="url(#b)"/>
        </g>
        <g transform="translate(17.633 30.712)">
            <mask id="d" fill="#fff">
                <use xlink:href="#c"/>
            </mask>
            <path fill="#ffffff" d="M4.792 5.185A23.962 23.962 0 0 1 .175 11.19l.166.097 11.61-6.752c.712-1.44 1.28-2.95 1.713-4.508l-8.872 5.16" mask="url(#d)"/>
        </g>
        <path fill="#ffffff" d="M28.743 17.723l1.14.658v-4.253l-.406-.198-6.632-3.857a33.804 33.804 0 0 1 1.805 5.283l4.093 2.367"/>
        <g transform="translate(26.816 5.364)">
            <mask id="f" fill="#fff">
                <use xlink:href="#e"/>
            </mask>
            <path fill="#ffffff" d="M.118.031A35.195 35.195 0 0 1 2.8 5.103L6.112 7.03v11.288l-.63-.363a28.902 28.902 0 0 1-.32 4.21l.95.551v1.71l-1.632.948c-.432 1.559-1.001 3.069-1.713 4.509l6.365-3.702V5.274L.118.03z" mask="url(#f)"/>
        </g>
        <g transform="translate(0 9.065)">
            <mask id="h" fill="#fff">
                <use xlink:href="#g"/>
            </mask>
            <path fill="#ffffff" d="M3.02 20.725V9.572l2.417 1.398a31.88 31.88 0 0 0-.74-4.802L3.02 5.194V3.329l.737-.429C3.427 1.94 3.054.986 2.633.042L0 1.573V22.48l3.245 1.887c.415-.937.773-1.901 1.075-2.886l-1.3-.756z" mask="url(#h)"/>
        </g>
        <path fill="#ffffff" d="M9.108 8.853a35.102 35.102 0 0 0-1.398-2.7L2.633 9.108a34.07 34.07 0 0 1 1.124 2.858l5.351-3.112zM4.32 30.546c-.302.985-.66 1.949-1.075 2.886l5.222 3.037c.528-.867.997-1.766 1.413-2.69l-5.56-3.233zM7.511 13.325l3.91 2.27a33.461 33.461 0 0 0-1.137-3.883l-2.773 1.613zM6.065 23.937v4.08l4.914 2.858a26.99 26.99 0 0 0 .853-3.602l-5.767-3.336M12.062 19.508l-7.365-4.276c.371 1.6.618 3.206.74 4.803l6.747 3.904a30.233 30.233 0 0 0-.122-4.43"/>
        <path fill="#ffffff" d="M15.59 8.627a34.48 34.48 0 0 1 1.36 3.229l.823-.479 6.877 3.979a33.81 33.81 0 0 0-1.805-5.283L17.974 7.24 15.59 8.627zM18.77 19.861l6.823 3.961a30.504 30.504 0 0 0-.214-4.507l-7.457-4.313c.412 1.616.694 3.241.848 4.86M22.425 35.897l-4.451 2.59-2.892-1.683a23.997 23.997 0 0 1-1.755 2.492l4.48 2.605a23.962 23.962 0 0 0 4.618-6.004M18.507 27.596l2.6 1.506-3.049 1.772-.274-.158a25.668 25.668 0 0 1-1.26 3.384l1.45.843 6.418-3.732c.401-1.307.702-2.65.903-4.02l-6.394-3.712a28.667 28.667 0 0 1-.394 4.117M17.979 3.695c.365.215.995.583 2.08 1.214A36.496 36.496 0 0 0 16.944.784l-4.462 2.595a35.908 35.908 0 0 1 1.659 2.548l3.839-2.232z"/>
        <path fill="#ffffff" d="M17.922 15.002l-3.2-1.85 2.227-1.296a34.48 34.48 0 0 0-1.36-3.23l-5.305 3.086a33.39 33.39 0 0 1 1.137 3.883l7.35 4.266a32.056 32.056 0 0 0-.85-4.86M18.901 23.479l-6.839-3.97c.15 1.487.19 2.968.122 4.43l6.323 3.657c.23-1.349.36-2.725.394-4.117M11.832 27.273a27.019 27.019 0 0 1-.853 3.602l5.545 3.225a25.695 25.695 0 0 0 1.26-3.384l-5.952-3.443M9.88 33.78a24.62 24.62 0 0 1-1.413 2.69l4.86 2.826a23.965 23.965 0 0 0 1.755-2.492L9.88 33.78zM14.14 5.927A35.97 35.97 0 0 0 12.48 3.38L7.71 6.154c.51.887.975 1.788 1.398 2.7l5.032-2.927z"/>
        <g transform="translate(48 15)">
            <g transform="translate(0 .085)">
                <mask id="j" fill="#fff">
                    <use xlink:href="#i"/>
                </mask>
                <path fill="#ffffff" d="M.525 8.991c.677.355 1.76.71 2.86.71 1.185 0 1.81-.49 1.81-1.234 0-.693-.54-1.115-1.895-1.588C1.388 6.186.135 5.17.135 3.498.135 1.554 1.777.084 4.451.084c1.32 0 2.251.253 2.911.558L6.804 2.72c-.457-.203-1.27-.541-2.387-.541S2.76 2.704 2.76 3.278c0 .71.643 1.048 2.115 1.606 2.014.744 2.945 1.792 2.945 3.397 0 1.91-1.439 3.55-4.586 3.55-1.304 0-2.59-.355-3.233-.71l.525-2.13z" mask="url(#j)"/>
            </g>
            <path fill="#ffffff" d="M14.147 2.502h-3.08V.338h8.784v2.164h-3.114v9.228h-2.59zM23.59.338h7.024v2.113H26.18v2.366h4.197v2.096H26.18v2.704h4.687v2.113H23.59zM34.996.338h7.024v2.113h-4.434v2.366h4.197v2.096h-4.197v2.704h4.688v2.113h-7.278zM46.402.338h3.013l2.352 4.175c.694 1.2 1.354 2.62 1.879 3.904h.05c-.169-1.504-.22-3.042-.22-4.766V.338h2.37V11.73h-2.691L50.7 7.353c-.677-1.234-1.439-2.688-1.98-4.023h-.068a88.91 88.91 0 0 1 .119 4.986v3.414h-2.37V.338z"/>
            <mask id="l" fill="#fff">
                <use xlink:href="#k"/>
            </mask>
            <path fill="#ffffff" d="M60.448 11.73h2.59V.338h-2.59zM67.64.338h6.973v2.113H70.23v2.62h4.095V7.15H70.23v4.58h-2.59zM81.551 7.065L77.963.338h2.962l1.15 2.738c.356.829.593 1.437.88 2.18h.035c.253-.692.524-1.368.863-2.18L84.987.338h2.91L84.14 6.981v4.75h-2.589V7.064z" mask="url(#l)"/>
        </g>
    </g>
</svg>
