<svg width="210" height="55" viewBox="0 0 210 55" fill="none" xmlns="http://www.w3.org/2000/svg">
<g id="Group 3">
<g id="logo2 copy">
<path id="Path 9 Copy 2" fill-rule="evenodd" clip-rule="evenodd" d="M11.299 11.2235C16.2357 8.0474 18.704 6.45935 22.2001 4.64417C26.3861 2.47082 27.1802 2.47082 31.6647 4.88852C33.7523 6.01405 38.0499 8.6995 44.5572 12.9449C44.6374 12.9971 44.7244 13.0524 44.8169 13.1111C45.98 13.8498 48.0059 15.1363 48.0059 17.8984V36.3965C48.0059 38.7541 46.9881 40.5369 44.9524 41.7448L31.3184 49.8354L31.2175 49.8901C26.8986 52.2317 26.5188 52.4376 21.8687 49.7223L8.5589 41.9505C6.25531 40.5811 5.10352 38.4946 5.10352 35.691V18.271C5.10352 15.2046 7.2218 13.841 8.06147 13.3031C9.25466 12.5388 10.3249 11.8502 11.299 11.2235ZM22.9144 47.9185C25.2589 49.2875 26.1064 49.6421 26.7195 49.6141C27.2838 49.5882 27.8909 49.3209 30.2949 48.0183L43.8942 39.9484C45.2982 39.1152 45.9265 38.0147 45.9265 36.3965V17.8984C45.9265 16.9183 45.5306 16.2342 44.7086 15.5696C44.5256 15.4216 44.3255 15.278 44.0837 15.1184C43.9967 15.061 43.7774 14.9208 43.6137 14.8162C43.5222 14.7577 43.4481 14.7104 43.424 14.6946C36.9669 10.4821 32.6991 7.81521 30.6807 6.72702C26.8084 4.63934 26.7382 4.63767 23.1555 6.49779C22.73 6.71874 22.3197 6.93642 21.9179 7.15438C21.3823 7.44495 20.8582 7.73794 20.3289 8.04262C19.0172 8.79768 17.6679 9.62574 15.7576 10.841C15.0592 11.2853 12.8049 12.7338 11.0963 13.8317C10.2188 14.3955 9.48522 14.8669 9.18016 15.0623C7.82434 15.9308 7.18287 16.7309 7.18287 18.271V35.691C7.18287 37.7667 7.95544 39.1662 9.60456 40.1467L22.9144 47.9185Z" fill="#2E469D"/>
<g id="Group">
<path id="Path" fill-rule="evenodd" clip-rule="evenodd" d="M27.9589 4.01926C27.1491 3.76286 25.91 3.91989 24.3727 4.35973C23.3798 4.6438 22.2704 5.05691 21.7967 5.27862C19.1348 6.52444 15.8177 16.562 15.6512 22.7821C15.6414 23.148 16.0932 23.3265 16.334 23.0517C18.5784 20.4906 20.5116 18.7249 23.5762 16.8697C27.9752 14.2067 33.4844 12.3539 40.3906 11.5546C40.7761 11.51 40.8663 10.9892 40.5186 10.8157C39.884 10.499 37.139 8.80738 35.5313 7.81665C34.9603 7.46476 34.5328 7.20129 34.3942 7.11925C32.6935 6.11209 31.2183 5.32928 29.8419 4.7324C29.1829 4.44662 28.5558 4.20825 27.9589 4.01926ZM29.5334 5.4506C30.8752 6.0325 32.3236 6.80105 33.9986 7.79296C34.1242 7.86736 34.5225 8.11287 35.0623 8.44558C36.1993 9.14638 37.964 10.2341 39.1301 10.9244C32.6565 11.8043 27.4156 13.631 23.1726 16.1995C20.3721 17.8948 18.489 19.5204 16.4911 21.7038C16.9722 15.724 19.9641 7.00025 22.1272 5.98784C22.5632 5.78381 23.6339 5.38509 24.5876 5.11225C25.9827 4.7131 27.1091 4.57035 27.7252 4.76544C28.2953 4.94594 28.8977 5.17493 29.5334 5.4506Z" fill="#2E469D"/>
<path id="Path 2" fill-rule="evenodd" clip-rule="evenodd" d="M7.26841 15.0618C9.03791 13.1952 13.3667 10.2901 20.2832 6.31692C20.6196 6.12372 21.0009 6.48839 20.8248 6.83476C15.9533 16.4138 14.9563 25.5175 17.8212 34.167C17.9346 34.5095 17.5652 34.8098 17.2547 34.6276C11.3009 31.1331 5.41943 24.3349 5.41622 21.3532C5.41421 19.4796 6.19254 16.1966 7.26841 15.0618ZM9.55916 27.1314C11.6032 29.4941 14.1528 31.7386 16.767 33.4119C14.3343 25.207 15.2675 16.611 19.5566 7.64036C13.3545 11.2465 9.43886 13.9085 7.83386 15.6015C6.93166 16.5532 6.19428 19.6634 6.1961 21.3536C6.19733 22.494 7.48283 24.7315 9.55916 27.1314Z" fill="#2E469D"/>
<path id="Path 3" fill-rule="evenodd" clip-rule="evenodd" d="M5.38017 27.0611C5.45764 25.8235 5.63771 22.9466 5.59159 22.7342C5.49374 22.2835 6.11768 22.0647 6.32192 22.4781C7.29925 24.4565 9.48434 27.3847 12.3131 30.0002C16.3964 33.7757 21.3658 36.568 27.2074 37.8984C27.5438 37.975 27.6233 38.4199 27.3343 38.6082C22.0253 42.0668 16.2035 43.8187 12.1236 42.8392C11.2405 42.6272 9.0524 41.3393 8.20095 40.5991C6.49418 39.1155 5.62652 36.4079 5.3667 32.7119C5.25694 31.1504 5.25942 29.4831 5.34671 27.6086C5.34906 27.5583 5.3617 27.3563 5.38017 27.0611ZM26.1326 38.4427C20.5397 37.0064 15.7522 34.2433 11.7851 30.5753C9.44562 28.4122 7.53353 26.0375 6.34661 24.1166C6.34075 24.2101 6.33434 24.3089 6.32738 24.4134C6.32326 24.4752 6.31045 24.6615 6.29506 24.8853C6.27052 25.2422 6.23942 25.6946 6.22647 25.8906C6.1842 26.5307 6.1517 27.0889 6.12574 27.6463C6.03976 29.4927 6.03732 31.1311 6.14465 32.658C6.39114 36.1643 7.20267 38.6968 8.71112 40.0081C9.4758 40.6728 11.5602 41.8997 12.304 42.0782C15.9436 42.952 21.2028 41.468 26.1326 38.4427Z" fill="#2E469D"/>
<path id="Path 4" fill-rule="evenodd" clip-rule="evenodd" d="M37.1865 30.8377C37.0945 35.6772 36.8273 38.9006 36.0002 42.1203C34.8157 46.7311 32.6754 49.6634 29.2972 50.3983C27.751 51.0882 25.5343 50.5653 22.1489 48.9335C20.7967 48.2818 19.3 47.4797 17.1199 46.2563C17.6164 46.5349 12.6578 43.7338 11.2046 42.9321C10.8144 42.7169 11.0296 42.1196 11.4665 42.2054C15.811 43.0585 20.9492 41.5283 26.4791 38.2314C30.3039 35.951 33.9441 33.0411 36.526 30.5476C36.7762 30.306 37.1931 30.4891 37.1865 30.8377ZM36.3862 31.7565C33.8263 34.1332 30.4347 36.7838 26.8782 38.9042C22.0025 41.8112 17.3992 43.3878 13.301 43.2074C15.2758 44.3154 17.8676 45.7799 17.4998 45.5735C19.6669 46.7895 21.1517 47.5852 22.4857 48.2283C25.6975 49.7764 27.7497 50.2536 29.01 49.6693C29.0366 49.657 29.0644 49.6477 29.0931 49.6417C32.1428 48.9967 34.1215 46.2973 35.245 41.924C35.9987 38.9901 36.2783 36.0262 36.3862 31.7565Z" fill="#2E469D"/>
<path id="Path 5" fill-rule="evenodd" clip-rule="evenodd" d="M33.1924 47.4956C32.9964 47.8684 33.4465 48.2465 33.7776 47.987C34.1569 47.6899 34.6981 47.3511 37.1933 45.8294C37.697 45.5223 38.1726 45.244 39.0123 44.7608C39.3665 44.5571 39.5435 44.4553 39.7219 44.3523C43.5977 42.114 45.467 40.6755 46.7737 38.472C47.5884 37.098 47.9911 34.5483 47.815 32.5507C47.4435 28.3354 42.3014 22.7392 36.1301 19.7313C35.8489 19.5943 35.5297 19.8279 35.5742 20.1383C36.6453 27.6148 36.6375 33.8861 35.7943 39.0705C35.199 42.7305 34.2756 45.4352 33.1924 47.4956ZM38.6236 44.0819C37.7784 44.5682 37.2984 44.8491 36.7875 45.1606C35.7185 45.8125 35.0058 46.2486 34.5078 46.5594C35.3563 44.6239 36.0717 42.2243 36.564 39.1976C37.3922 34.1054 37.4268 27.9974 36.4492 20.7685C42.1017 23.7337 46.708 28.8726 47.0382 32.6185C47.201 34.4659 46.8235 36.8567 46.1033 38.0712C44.8874 40.1216 43.095 41.5009 39.3321 43.674C39.1543 43.7766 38.9779 43.8781 38.6236 44.0819Z" fill="#2E469D"/>
<path id="Path 6" fill-rule="evenodd" clip-rule="evenodd" d="M47.5842 30.8294C47.4905 30.9966 47.3221 31.1179 47.0804 31.0356C46.8727 30.9649 46.8145 30.8564 46.758 30.6115C41.8827 22.7166 34.2368 18.0725 23.7872 16.6711C23.4106 16.6206 23.3202 16.1147 23.6561 15.9371C28.7873 13.2244 34.3664 11.4764 40.3912 10.6931C40.9044 10.6264 41.5594 11.1385 43.5266 12.8886L43.6108 12.9636C45.3021 14.4695 46.0061 15.0466 46.1751 15.0586C46.3018 15.0677 46.4162 15.138 46.4818 15.2472C47.3281 16.6546 47.7766 20.2981 47.8675 24.8452C47.9022 26.5803 47.8746 28.2738 47.7992 29.4311C47.7623 29.9972 47.7161 30.4038 47.6598 30.6265C47.6398 30.7058 47.6171 30.7706 47.5842 30.8294ZM40.4897 11.4695L40.4914 11.4693C34.9797 12.186 29.8511 13.7211 25.1037 16.0747C34.8779 17.6518 42.1887 22.1461 47.0091 29.5507C47.0131 29.4954 47.0171 29.4381 47.0209 29.3789C47.0948 28.2457 47.1221 26.5739 47.0878 24.8598C47.0032 20.6274 46.5904 17.1475 45.8931 15.7928C45.4795 15.6515 44.8876 15.1458 43.0937 13.5485L43.0096 13.4737C42.1982 12.7518 41.7252 12.3443 41.3009 12.0126C41.0478 11.8148 40.8394 11.6675 40.6778 11.5731C40.601 11.5282 40.5377 11.4971 40.4911 11.4802L40.4888 11.4793C40.4715 11.473 40.4693 11.4723 40.4897 11.4695Z" fill="#2E469D"/>
</g>
<path id="Path 7 Copy" fill-rule="evenodd" clip-rule="evenodd" d="M21.6602 27.8261C21.6602 24.6739 24.1332 21.5217 27.943 21.5217C31.3975 21.5217 32.7987 23.8778 33.403 24.6739C31.0441 26.564 30.2573 24.1361 27.943 24.1361C25.6286 24.1361 24.2635 26.1482 24.2635 27.6174C24.2635 29.0865 24.7919 30.9735 27.5316 31.5139C29.6308 31.7339 30.6498 29.6442 32.7944 31.8325C30.7308 34.2205 28.5734 34.1304 27.5316 34.1304C26.2458 34.1304 21.6602 32.7294 21.6602 27.8261Z" fill="#F17EA5"/>
<path id="Path 7" fill-rule="evenodd" clip-rule="evenodd" d="M20.1445 26.7391C20.1445 23.587 22.6175 20.4348 26.4274 20.4348C29.8819 20.4348 31.2831 22.7908 31.8874 23.587C29.5285 25.4771 28.7417 23.0491 26.4274 23.0491C24.113 23.0491 22.7478 25.0612 22.7478 26.5304C22.7478 27.9996 23.2763 29.8866 26.016 30.427C28.1152 30.647 29.1342 28.5572 31.2788 30.7456C29.2152 33.1335 27.0578 33.0435 26.016 33.0435C24.7301 33.0435 20.1445 31.6425 20.1445 26.7391Z" fill="#2E469D"/>
</g>
<g id="chuphinhthe">
<path d="M69.6825 27.9275C69.1508 28.3492 68.4817 28.6883 67.675 28.945C66.8867 29.2017 66.1075 29.33 65.3375 29.33C63.2475 29.33 61.5883 28.7708 60.36 27.6525C59.15 26.5158 58.545 24.9575 58.545 22.9775C58.545 21.6942 58.8383 20.5758 59.425 19.6225C60.03 18.6508 60.8183 17.9175 61.79 17.4225C62.7617 16.9092 63.8067 16.6525 64.925 16.6525C66.9233 16.6525 68.5458 17.1842 69.7925 18.2475L67.9225 20.7225C67.1342 20.0992 66.2542 19.7875 65.2825 19.7875C64.4758 19.7875 63.7883 20.09 63.22 20.695C62.67 21.3 62.395 22.0608 62.395 22.9775C62.395 23.8942 62.6975 24.6642 63.3025 25.2875C63.9075 25.8925 64.6958 26.195 65.6675 26.195C66.5108 26.195 67.2075 25.9658 67.7575 25.5075L69.6825 27.9275ZM79.9992 16.405C81.1358 16.405 82.08 16.7442 82.8317 17.4225C83.6017 18.1008 83.9958 18.9625 84.0142 20.0075V29H80.1642V21.4375C80.1092 20.2642 79.5225 19.6775 78.4042 19.6775C77.5242 19.6775 76.8183 20.09 76.2867 20.915C75.755 21.74 75.4892 22.8033 75.4892 24.105V29H71.6392V7.3025H75.4067V18.88C75.8467 18.11 76.4517 17.505 77.2217 17.065C78.01 16.625 78.9358 16.405 79.9992 16.405ZM99.0673 16.9825V29H95.5748L95.2998 27.075C94.8781 27.845 94.2823 28.4592 93.5123 28.9175C92.7606 29.3575 91.8715 29.5775 90.8448 29.5775C89.7448 29.5775 88.8281 29.2383 88.0948 28.56C87.3615 27.8817 86.9856 27.02 86.9673 25.975V16.9825H90.8173V24.545C90.8723 25.7183 91.4131 26.305 92.4398 26.305C93.2831 26.305 93.9523 25.8925 94.4473 25.0675C94.9606 24.2425 95.2173 23.1792 95.2173 21.8775V16.9825H99.0673ZM110.332 16.3775C111.45 16.3775 112.449 16.6433 113.329 17.175C114.209 17.7067 114.897 18.4675 115.392 19.4575C115.905 20.4475 116.162 21.6117 116.162 22.95C116.162 24.27 115.878 25.4158 115.309 26.3875C114.759 27.3408 113.98 28.0742 112.972 28.5875C111.982 29.0825 110.845 29.33 109.562 29.33C108.865 29.33 108.178 29.2108 107.499 28.9725C106.839 28.7158 106.289 28.3583 105.849 27.9V34.775H102.027V16.7075H105.327L105.657 18.1375C107.124 16.9642 108.682 16.3775 110.332 16.3775ZM108.792 26.305C109.745 26.305 110.561 25.9933 111.239 25.37C111.918 24.7467 112.257 23.9583 112.257 23.005C112.257 22.015 111.945 21.2083 111.322 20.585C110.717 19.9433 109.965 19.6225 109.067 19.6225C108.315 19.6225 107.674 19.7783 107.142 20.09C106.629 20.3833 106.207 20.8325 105.877 21.4375V24.38C106.079 24.9667 106.436 25.4342 106.949 25.7825C107.481 26.1308 108.095 26.305 108.792 26.305ZM126.548 16.405C127.684 16.405 128.628 16.7442 129.38 17.4225C130.15 18.1008 130.544 18.9625 130.563 20.0075V29H126.713V21.4375C126.658 20.2642 126.071 19.6775 124.953 19.6775C124.073 19.6775 123.367 20.09 122.835 20.915C122.303 21.74 122.038 22.8033 122.038 24.105V29H118.188V7.3025H121.955V18.88C122.395 18.11 123 17.505 123.77 17.065C124.558 16.625 125.484 16.405 126.548 16.405ZM137.366 16.9825V29H133.516V16.9825H137.366ZM133.433 12.72C133.433 12.17 133.644 11.7117 134.066 11.345C134.506 10.96 135.001 10.7675 135.551 10.7675C136.082 10.7675 136.559 10.96 136.981 11.345C137.402 11.7117 137.613 12.17 137.613 12.72C137.613 13.27 137.402 13.7283 136.981 14.095C136.559 14.4617 136.082 14.645 135.551 14.645C135.001 14.645 134.506 14.4617 134.066 14.095C133.644 13.7283 133.433 13.27 133.433 12.72ZM148.691 16.405C149.827 16.405 150.771 16.7442 151.523 17.4225C152.293 18.1008 152.687 18.9625 152.706 20.0075V29H148.856V21.4375C148.801 20.2642 148.214 19.6775 147.096 19.6775C146.216 19.6775 145.51 20.09 144.978 20.915C144.446 21.74 144.181 22.8033 144.181 24.105V29H140.331V16.9825H143.823L144.098 18.9075C144.538 18.1192 145.143 17.505 145.913 17.065C146.701 16.625 147.627 16.405 148.691 16.405ZM164.019 16.405C165.155 16.405 166.1 16.7442 166.851 17.4225C167.621 18.1008 168.015 18.9625 168.034 20.0075V29H164.184V21.4375C164.129 20.2642 163.542 19.6775 162.424 19.6775C161.544 19.6775 160.838 20.09 160.306 20.915C159.775 21.74 159.509 22.8033 159.509 24.105V29H155.659V7.3025H159.426V18.88C159.866 18.11 160.471 17.505 161.241 17.065C162.03 16.625 162.955 16.405 164.019 16.405ZM175.964 11.7025V16.9275H178.879V19.925H175.964V29H172.114V19.925H170.244V16.9275H172.114V11.7025H175.964ZM189.17 16.405C190.306 16.405 191.25 16.7442 192.002 17.4225C192.772 18.1008 193.166 18.9625 193.185 20.0075V29H189.335V21.4375C189.28 20.2642 188.693 19.6775 187.575 19.6775C186.695 19.6775 185.989 20.09 185.457 20.915C184.925 21.74 184.66 22.8033 184.66 24.105V29H180.81V7.3025H184.577V18.88C185.017 18.11 185.622 17.505 186.392 17.065C187.18 16.625 188.106 16.405 189.17 16.405ZM202.133 26.0575C202.903 26.0575 203.7 25.7917 204.525 25.26L206.23 28.12C205.57 28.4867 204.874 28.78 204.14 29C203.407 29.22 202.71 29.33 202.05 29.33C200.62 29.33 199.383 29.0642 198.338 28.5325C197.311 27.9825 196.532 27.2217 196 26.25C195.469 25.26 195.203 24.1325 195.203 22.8675C195.203 21.6942 195.505 20.6125 196.11 19.6225C196.734 18.6325 197.577 17.8533 198.64 17.285C199.704 16.6983 200.868 16.405 202.133 16.405C203.856 16.405 205.268 16.9092 206.368 17.9175C207.486 18.9258 208.21 20.365 208.54 22.235L199.74 25.04C200.327 25.7183 201.124 26.0575 202.133 26.0575ZM201.83 19.4025C200.969 19.4025 200.281 19.6958 199.768 20.2825C199.254 20.8692 198.998 21.6575 198.998 22.6475V22.895L204.278 21.1075C203.893 19.9708 203.077 19.4025 201.83 19.4025Z" fill="#2E469D"/>
<path d="M69.6825 27.9275L69.9932 28.3192L70.3855 28.0081L70.0738 27.6162L69.6825 27.9275ZM67.675 28.945L67.5234 28.4685L67.5202 28.4696L67.675 28.945ZM60.36 27.6525L60.0176 28.017L60.0234 28.0222L60.36 27.6525ZM59.425 19.6225L59.0005 19.3582L58.9992 19.3605L59.425 19.6225ZM61.79 17.4225L62.017 17.8681L62.0236 17.8646L61.79 17.4225ZM69.7925 18.2475L70.1914 18.5489L70.4755 18.1729L70.117 17.8671L69.7925 18.2475ZM67.9225 20.7225L67.6124 21.1147L68.0133 21.4317L68.3214 21.0239L67.9225 20.7225ZM63.22 20.695L62.8555 20.3526L62.85 20.3587L63.22 20.695ZM63.3025 25.2875L62.9437 25.6358L62.9489 25.6411L63.3025 25.2875ZM67.7575 25.5075L68.1488 25.1962L67.8304 24.7959L67.4374 25.1234L67.7575 25.5075ZM69.3718 27.5358C68.8977 27.9117 68.2861 28.2259 67.5234 28.4685L67.8266 29.4215C68.6772 29.1508 69.4039 28.7866 69.9932 28.3192L69.3718 27.5358ZM67.5202 28.4696C66.778 28.7112 66.051 28.83 65.3375 28.83V29.83C66.164 29.83 66.9953 29.6921 67.8298 29.4204L67.5202 28.4696ZM65.3375 28.83C63.3386 28.83 61.8108 28.2972 60.6966 27.2828L60.0234 28.0222C61.3658 29.2444 63.1564 29.83 65.3375 29.83V28.83ZM60.7023 27.2881C59.6122 26.264 59.045 24.8483 59.045 22.9775H58.045C58.045 25.0667 58.6878 26.7677 60.0177 28.0169L60.7023 27.2881ZM59.045 22.9775C59.045 21.7729 59.3194 20.7481 59.8508 19.8845L58.9992 19.3605C58.3572 20.4036 58.045 21.6155 58.045 22.9775H59.045ZM59.8494 19.8868C60.4088 18.9884 61.1305 18.3196 62.017 17.868L61.563 16.977C60.5062 17.5154 59.6512 18.3133 59.0006 19.3582L59.8494 19.8868ZM62.0236 17.8646C62.9219 17.39 63.8866 17.1525 64.925 17.1525V16.1525C63.7268 16.1525 62.6014 16.4283 61.5564 16.9804L62.0236 17.8646ZM64.925 17.1525C66.8316 17.1525 68.3306 17.6577 69.468 18.6279L70.117 17.8671C68.7611 16.7106 67.0151 16.1525 64.925 16.1525V17.1525ZM69.3936 17.9461L67.5236 20.4211L68.3214 21.0239L70.1914 18.5489L69.3936 17.9461ZM68.2326 20.3303C67.3593 19.6397 66.3708 19.2875 65.2825 19.2875V20.2875C66.1375 20.2875 66.9091 20.5586 67.6124 21.1147L68.2326 20.3303ZM65.2825 19.2875C64.3333 19.2875 63.5153 19.6504 62.8556 20.3527L63.5844 21.0373C64.0614 20.5296 64.6183 20.2875 65.2825 20.2875V19.2875ZM62.85 20.3587C62.2061 21.067 61.895 21.9527 61.895 22.9775H62.895C62.895 22.169 63.1339 21.533 63.59 21.0313L62.85 20.3587ZM61.895 22.9775C61.895 24.0162 62.2428 24.9135 62.9437 25.6357L63.6613 24.9393C63.1522 24.4148 62.895 23.7721 62.895 22.9775H61.895ZM62.9489 25.6411C63.6607 26.3528 64.5828 26.695 65.6675 26.695V25.695C64.8089 25.695 64.1543 25.4322 63.6561 24.9339L62.9489 25.6411ZM65.6675 26.695C66.606 26.695 67.4223 26.4377 68.0776 25.8916L67.4374 25.1234C66.9927 25.494 66.4157 25.695 65.6675 25.695V26.695ZM67.3662 25.8188L69.2912 28.2388L70.0738 27.6162L68.1488 25.1962L67.3662 25.8188ZM82.8317 17.4225L82.4967 17.7937L82.5012 17.7977L82.8317 17.4225ZM84.0142 20.0075H84.5143L84.5141 19.9987L84.0142 20.0075ZM84.0142 29V29.5H84.5142V29H84.0142ZM80.1642 29H79.6642V29.5H80.1642V29ZM80.1642 21.4375H80.6642V21.4258L80.6636 21.4141L80.1642 21.4375ZM76.2867 20.915L76.707 21.1859V21.1859L76.2867 20.915ZM75.4892 29V29.5H75.9892V29H75.4892ZM71.6392 29H71.1392V29.5H71.6392V29ZM71.6392 7.3025V6.8025H71.1392V7.3025H71.6392ZM75.4067 7.3025H75.9067V6.8025H75.4067V7.3025ZM75.4067 18.88H74.9067V20.7628L75.8408 19.1281L75.4067 18.88ZM77.2217 17.065L76.978 16.6284L76.9736 16.6309L77.2217 17.065ZM79.9992 16.905C81.0284 16.905 81.8483 17.2086 82.4967 17.7937L83.1667 17.0513C82.3117 16.2797 81.2433 15.905 79.9992 15.905V16.905ZM82.5012 17.7977C83.1635 18.3812 83.4983 19.1088 83.5143 20.0163L84.5141 19.9987C84.4934 18.8162 84.0399 17.8205 83.1622 17.0473L82.5012 17.7977ZM83.5142 20.0075V29H84.5142V20.0075H83.5142ZM84.0142 28.5H80.1642V29.5H84.0142V28.5ZM80.6642 29V21.4375H79.6642V29H80.6642ZM80.6636 21.4141C80.6327 20.7546 80.4486 20.176 80.0365 19.7639C79.6204 19.3479 79.0485 19.1775 78.4042 19.1775V20.1775C78.8782 20.1775 79.1588 20.3004 79.3294 20.4711C79.504 20.6456 79.6406 20.9471 79.6647 21.4609L80.6636 21.4141ZM78.4042 19.1775C77.3323 19.1775 76.4776 19.6958 75.8664 20.6441L76.707 21.1859C77.1591 20.4842 77.7161 20.1775 78.4042 20.1775V19.1775ZM75.8664 20.6441C75.2683 21.5723 74.9892 22.7379 74.9892 24.105H75.9892C75.9892 22.8687 76.2418 21.9077 76.707 21.1859L75.8664 20.6441ZM74.9892 24.105V29H75.9892V24.105H74.9892ZM75.4892 28.5H71.6392V29.5H75.4892V28.5ZM72.1392 29V7.3025H71.1392V29H72.1392ZM71.6392 7.8025H75.4067V6.8025H71.6392V7.8025ZM74.9067 7.3025V18.88H75.9067V7.3025H74.9067ZM75.8408 19.1281C76.2365 18.4356 76.7773 17.8948 77.4697 17.4991L76.9736 16.6309C76.1261 17.1152 75.4569 17.7844 74.9726 18.6319L75.8408 19.1281ZM77.4654 17.5016C78.167 17.11 79.0059 16.905 79.9992 16.905V15.905C78.8658 15.905 77.8531 16.14 76.978 16.6284L77.4654 17.5016ZM99.0673 16.9825H99.5673V16.4825H99.0673V16.9825ZM99.0673 29V29.5H99.5673V29H99.0673ZM95.5748 29L95.0798 29.0707L95.1412 29.5H95.5748V29ZM95.2998 27.075L95.7948 27.0043L95.5824 25.5179L94.8613 26.8348L95.2998 27.075ZM93.5123 28.9175L93.7649 29.349L93.768 29.3471L93.5123 28.9175ZM88.0948 28.56L87.7553 28.927L88.0948 28.56ZM86.9673 25.975H86.4672L86.4674 25.9838L86.9673 25.975ZM86.9673 16.9825V16.4825H86.4673V16.9825H86.9673ZM90.8173 16.9825H91.3173V16.4825H90.8173V16.9825ZM90.8173 24.545H90.3173V24.5567L90.3179 24.5684L90.8173 24.545ZM94.4473 25.0675L94.0227 24.8033L94.0186 24.8103L94.4473 25.0675ZM95.2173 16.9825V16.4825H94.7173V16.9825H95.2173ZM98.5673 16.9825V29H99.5673V16.9825H98.5673ZM99.0673 28.5H95.5748V29.5H99.0673V28.5ZM96.0698 28.9293L95.7948 27.0043L94.8048 27.1457L95.0798 29.0707L96.0698 28.9293ZM94.8613 26.8348C94.4834 27.5248 93.9515 28.0742 93.2566 28.4879L93.768 29.3471C94.6131 28.8441 95.2729 28.1652 95.7384 27.3152L94.8613 26.8348ZM93.2597 28.486C92.5974 28.8737 91.7987 29.0775 90.8448 29.0775V30.0775C91.9443 30.0775 92.9239 29.8413 93.7649 29.349L93.2597 28.486ZM90.8448 29.0775C89.8569 29.0775 89.0656 28.7769 88.4343 28.1929L87.7553 28.927C88.5907 29.6998 89.6328 30.0775 90.8448 30.0775V29.0775ZM88.4343 28.193C87.8061 27.6119 87.4833 26.882 87.4672 25.9662L86.4674 25.9838C86.488 27.158 86.9168 28.1515 87.7553 28.927L88.4343 28.193ZM87.4673 25.975V16.9825H86.4673V25.975H87.4673ZM86.9673 17.4825H90.8173V16.4825H86.9673V17.4825ZM90.3173 16.9825V24.545H91.3173V16.9825H90.3173ZM90.3179 24.5684C90.3483 25.2187 90.5163 25.7915 90.8966 26.2039C91.287 26.6274 91.8292 26.805 92.4398 26.805V25.805C92.0237 25.805 91.7822 25.6892 91.6318 25.5261C91.4712 25.3519 91.3413 25.0447 91.3168 24.5216L90.3179 24.5684ZM92.4398 26.805C93.4863 26.805 94.3058 26.2751 94.8761 25.3247L94.0186 24.8103C93.5988 25.5099 93.0799 25.805 92.4398 25.805V26.805ZM94.8718 25.3316C95.4486 24.4047 95.7173 23.2417 95.7173 21.8775H94.7173C94.7173 23.1166 94.4727 24.0802 94.0228 24.8033L94.8718 25.3316ZM95.7173 21.8775V16.9825H94.7173V21.8775H95.7173ZM95.2173 17.4825H99.0673V16.4825H95.2173V17.4825ZM113.329 17.175L113.071 17.603L113.329 17.175ZM115.392 19.4575L114.945 19.6811L114.948 19.6877L115.392 19.4575ZM115.309 26.3875L114.878 26.1351L114.876 26.1376L115.309 26.3875ZM112.972 28.5875L113.195 29.0347L113.199 29.0331L112.972 28.5875ZM107.499 28.9725L107.318 29.4385L107.326 29.4415L107.334 29.4442L107.499 28.9725ZM105.849 27.9L106.21 27.5537L105.349 26.6572V27.9H105.849ZM105.849 34.775V35.275H106.349V34.775H105.849ZM102.027 34.775H101.527V35.275H102.027V34.775ZM102.027 16.7075V16.2075H101.527V16.7075H102.027ZM105.327 16.7075L105.814 16.5951L105.725 16.2075H105.327V16.7075ZM105.657 18.1375L105.17 18.2499L105.348 19.0246L105.969 18.5279L105.657 18.1375ZM111.239 25.37L110.901 25.0018L111.239 25.37ZM111.322 20.585L110.958 20.928L110.963 20.9334L110.968 20.9386L111.322 20.585ZM107.142 20.09L107.39 20.5241L107.395 20.5213L107.142 20.09ZM105.877 21.4375L105.438 21.1981L105.377 21.31V21.4375H105.877ZM105.877 24.38H105.377V24.4635L105.404 24.5425L105.877 24.38ZM106.949 25.7825L106.669 26.1963L106.675 26.2007L106.949 25.7825ZM110.332 16.8775C111.367 16.8775 112.276 17.1225 113.071 17.603L113.588 16.747C112.623 16.1641 111.533 15.8775 110.332 15.8775V16.8775ZM113.071 17.603C113.864 18.082 114.489 18.7689 114.945 19.6811L115.839 19.2339C115.305 18.1661 114.555 17.3314 113.588 16.747L113.071 17.603ZM114.948 19.6877C115.418 20.5936 115.662 21.6759 115.662 22.95H116.662C116.662 21.5475 116.393 20.3014 115.836 19.2273L114.948 19.6877ZM115.662 22.95C115.662 24.1967 115.394 25.2523 114.878 26.1351L115.741 26.6399C116.361 25.5794 116.662 24.3433 116.662 22.95H115.662ZM114.876 26.1376C114.376 27.0047 113.67 27.6712 112.745 28.1419L113.199 29.0331C114.291 28.4771 115.143 27.677 115.742 26.6374L114.876 26.1376ZM112.748 28.1403C111.838 28.5954 110.78 28.83 109.562 28.83V29.83C110.91 29.83 112.126 29.5696 113.195 29.0347L112.748 28.1403ZM109.562 28.83C108.923 28.83 108.292 28.721 107.665 28.5008L107.334 29.4442C108.063 29.7007 108.807 29.83 109.562 29.83V28.83ZM107.681 28.5065C107.081 28.2732 106.594 27.9538 106.21 27.5537L105.489 28.2463C105.985 28.7628 106.598 29.1585 107.318 29.4385L107.681 28.5065ZM105.349 27.9V34.775H106.349V27.9H105.349ZM105.849 34.275H102.027V35.275H105.849V34.275ZM102.527 34.775V16.7075H101.527V34.775H102.527ZM102.027 17.2075H105.327V16.2075H102.027V17.2075ZM104.84 16.8199L105.17 18.2499L106.144 18.0251L105.814 16.5951L104.84 16.8199ZM105.969 18.5279C107.36 17.4152 108.811 16.8775 110.332 16.8775V15.8775C108.553 15.8775 106.887 16.5131 105.345 17.7471L105.969 18.5279ZM108.792 26.805C109.866 26.805 110.804 26.4495 111.578 25.7382L110.901 25.0018C110.318 25.5372 109.625 25.805 108.792 25.805V26.805ZM111.578 25.7382C112.363 25.0165 112.757 24.0928 112.757 23.005H111.757C111.757 23.8239 111.472 24.4769 110.901 25.0018L111.578 25.7382ZM112.757 23.005C112.757 21.9002 112.404 20.9604 111.675 20.2314L110.968 20.9386C111.486 21.4562 111.757 22.1298 111.757 23.005H112.757ZM111.686 20.242C110.984 19.498 110.1 19.1225 109.067 19.1225V20.1225C109.83 20.1225 110.45 20.3886 110.958 20.928L111.686 20.242ZM109.067 19.1225C108.246 19.1225 107.513 19.2931 106.889 19.6587L107.395 20.5213C107.834 20.2636 108.385 20.1225 109.067 20.1225V19.1225ZM106.894 19.6559C106.288 20.0023 105.805 20.5254 105.438 21.1981L106.316 21.6769C106.609 21.1396 106.97 20.7643 107.39 20.5241L106.894 19.6559ZM105.377 21.4375V24.38H106.377V21.4375H105.377ZM105.404 24.5425C105.641 25.2315 106.066 25.7872 106.669 26.1962L107.23 25.3688C106.806 25.0812 106.516 24.7018 106.35 24.2175L105.404 24.5425ZM106.675 26.2007C107.296 26.6075 108.008 26.805 108.792 26.805V25.805C108.183 25.805 107.666 25.6542 107.223 25.3643L106.675 26.2007ZM129.38 17.4225L129.045 17.7937L129.05 17.7977L129.38 17.4225ZM130.563 20.0075H131.063L131.062 19.9987L130.563 20.0075ZM130.563 29V29.5H131.063V29H130.563ZM126.713 29H126.213V29.5H126.713V29ZM126.713 21.4375H127.213V21.4258L127.212 21.4141L126.713 21.4375ZM122.835 20.915L123.255 21.1859V21.1859L122.835 20.915ZM122.038 29V29.5H122.538V29H122.038ZM118.188 29H117.688V29.5H118.188V29ZM118.188 7.3025V6.8025H117.688V7.3025H118.188ZM121.955 7.3025H122.455V6.8025H121.955V7.3025ZM121.955 18.88H121.455V20.7628L122.389 19.1281L121.955 18.88ZM123.77 17.065L123.526 16.6284L123.522 16.6309L123.77 17.065ZM126.548 16.905C127.577 16.905 128.397 17.2086 129.045 17.7937L129.715 17.0513C128.86 16.2797 127.792 15.905 126.548 15.905V16.905ZM129.05 17.7977C129.712 18.3812 130.047 19.1088 130.063 20.0163L131.062 19.9987C131.042 18.8162 130.588 17.8205 129.711 17.0473L129.05 17.7977ZM130.063 20.0075V29H131.063V20.0075H130.063ZM130.563 28.5H126.713V29.5H130.563V28.5ZM127.213 29V21.4375H126.213V29H127.213ZM127.212 21.4141C127.181 20.7546 126.997 20.176 126.585 19.7639C126.169 19.3479 125.597 19.1775 124.953 19.1775V20.1775C125.427 20.1775 125.707 20.3004 125.878 20.4711C126.052 20.6456 126.189 20.9471 126.213 21.4609L127.212 21.4141ZM124.953 19.1775C123.881 19.1775 123.026 19.6958 122.415 20.6441L123.255 21.1859C123.707 20.4842 124.264 20.1775 124.953 20.1775V19.1775ZM122.415 20.6441C121.817 21.5723 121.538 22.7379 121.538 24.105H122.538C122.538 22.8687 122.79 21.9077 123.255 21.1859L122.415 20.6441ZM121.538 24.105V29H122.538V24.105H121.538ZM122.038 28.5H118.188V29.5H122.038V28.5ZM118.688 29V7.3025H117.688V29H118.688ZM118.188 7.8025H121.955V6.8025H118.188V7.8025ZM121.455 7.3025V18.88H122.455V7.3025H121.455ZM122.389 19.1281C122.785 18.4356 123.326 17.8948 124.018 17.4991L123.522 16.6309C122.674 17.1152 122.005 17.7844 121.521 18.6319L122.389 19.1281ZM124.014 17.5016C124.715 17.11 125.554 16.905 126.548 16.905V15.905C125.414 15.905 124.401 16.14 123.526 16.6284L124.014 17.5016ZM137.366 16.9825H137.866V16.4825H137.366V16.9825ZM137.366 29V29.5H137.866V29H137.366ZM133.516 29H133.016V29.5H133.516V29ZM133.516 16.9825V16.4825H133.016V16.9825H133.516ZM134.066 11.345L134.394 11.7223L134.395 11.7213L134.066 11.345ZM136.981 11.345L136.643 11.7144L136.653 11.7223L136.981 11.345ZM136.981 14.095L136.653 13.7177V13.7177L136.981 14.095ZM134.066 14.095L133.737 14.4724L133.746 14.4791L134.066 14.095ZM136.866 16.9825V29H137.866V16.9825H136.866ZM137.366 28.5H133.516V29.5H137.366V28.5ZM134.016 29V16.9825H133.016V29H134.016ZM133.516 17.4825H137.366V16.4825H133.516V17.4825ZM133.933 12.72C133.933 12.3174 134.079 11.9957 134.394 11.7223L133.738 10.9677C133.209 11.4276 132.933 12.0226 132.933 12.72H133.933ZM134.395 11.7213C134.75 11.4106 135.13 11.2675 135.551 11.2675V10.2675C134.871 10.2675 134.261 10.5094 133.736 10.9687L134.395 11.7213ZM135.551 11.2675C135.948 11.2675 136.307 11.4066 136.644 11.7142L137.318 10.9758C136.811 10.5134 136.217 10.2675 135.551 10.2675V11.2675ZM136.653 11.7223C136.967 11.9957 137.113 12.3174 137.113 12.72H138.113C138.113 12.0226 137.838 11.4276 137.309 10.9677L136.653 11.7223ZM137.113 12.72C137.113 13.1226 136.967 13.4442 136.653 13.7177L137.309 14.4723C137.838 14.0124 138.113 13.4174 138.113 12.72H137.113ZM136.653 13.7177C136.317 14.0096 135.955 14.145 135.551 14.145V15.145C136.209 15.145 136.801 14.9137 137.309 14.4723L136.653 13.7177ZM135.551 14.145C135.123 14.145 134.74 14.006 134.386 13.7109L133.746 14.4791C134.271 14.9173 134.879 15.145 135.551 15.145V14.145ZM134.394 13.7177C134.079 13.4442 133.933 13.1226 133.933 12.72H132.933C132.933 13.4174 133.209 14.0124 133.738 14.4723L134.394 13.7177ZM151.523 17.4225L151.188 17.7937L151.193 17.7977L151.523 17.4225ZM152.706 20.0075H153.206L153.206 19.9987L152.706 20.0075ZM152.706 29V29.5H153.206V29H152.706ZM148.856 29H148.356V29.5H148.856V29ZM148.856 21.4375H149.356V21.4258L149.355 21.4141L148.856 21.4375ZM144.978 20.915L145.398 21.1859V21.1859L144.978 20.915ZM144.181 29V29.5H144.681V29H144.181ZM140.331 29H139.831V29.5H140.331V29ZM140.331 16.9825V16.4825H139.831V16.9825H140.331ZM143.823 16.9825L144.318 16.9118L144.257 16.4825H143.823V16.9825ZM144.098 18.9075L143.603 18.9782L143.813 20.4449L144.535 19.1512L144.098 18.9075ZM145.913 17.065L145.669 16.6284L145.665 16.6309L145.913 17.065ZM148.691 16.905C149.72 16.905 150.54 17.2086 151.188 17.7937L151.858 17.0513C151.003 16.2797 149.935 15.905 148.691 15.905V16.905ZM151.193 17.7977C151.855 18.3812 152.19 19.1088 152.206 20.0163L153.206 19.9987C153.185 18.8162 152.731 17.8205 151.854 17.0473L151.193 17.7977ZM152.206 20.0075V29H153.206V20.0075H152.206ZM152.706 28.5H148.856V29.5H152.706V28.5ZM149.356 29V21.4375H148.356V29H149.356ZM149.355 21.4141C149.324 20.7546 149.14 20.176 148.728 19.7639C148.312 19.3479 147.74 19.1775 147.096 19.1775V20.1775C147.57 20.1775 147.85 20.3004 148.021 20.4711C148.195 20.6456 148.332 20.9471 148.356 21.4609L149.355 21.4141ZM147.096 19.1775C146.024 19.1775 145.169 19.6958 144.558 20.6441L145.398 21.1859C145.851 20.4842 146.407 20.1775 147.096 20.1775V19.1775ZM144.558 20.6441C143.96 21.5723 143.681 22.7379 143.681 24.105H144.681C144.681 22.8687 144.933 21.9077 145.398 21.1859L144.558 20.6441ZM143.681 24.105V29H144.681V24.105H143.681ZM144.181 28.5H140.331V29.5H144.181V28.5ZM140.831 29V16.9825H139.831V29H140.831ZM140.331 17.4825H143.823V16.4825H140.331V17.4825ZM143.328 17.0532L143.603 18.9782L144.593 18.8368L144.318 16.9118L143.328 17.0532ZM144.535 19.1512C144.931 18.4408 145.472 17.8931 146.161 17.4991L145.665 16.6309C144.815 17.1169 144.145 17.7975 143.661 18.6638L144.535 19.1512ZM146.157 17.5016C146.858 17.11 147.697 16.905 148.691 16.905V15.905C147.557 15.905 146.544 16.14 145.669 16.6284L146.157 17.5016ZM166.851 17.4225L166.516 17.7937L166.521 17.7977L166.851 17.4225ZM168.034 20.0075H168.534L168.534 19.9987L168.034 20.0075ZM168.034 29V29.5H168.534V29H168.034ZM164.184 29H163.684V29.5H164.184V29ZM164.184 21.4375H164.684V21.4258L164.683 21.4141L164.184 21.4375ZM160.306 20.915L160.726 21.1859V21.1859L160.306 20.915ZM159.509 29V29.5H160.009V29H159.509ZM155.659 29H155.159V29.5H155.659V29ZM155.659 7.3025V6.8025H155.159V7.3025H155.659ZM159.426 7.3025H159.926V6.8025H159.426V7.3025ZM159.426 18.88H158.926V20.7628L159.86 19.1281L159.426 18.88ZM161.241 17.065L160.998 16.6284L160.993 16.6309L161.241 17.065ZM164.019 16.905C165.048 16.905 165.868 17.2086 166.516 17.7937L167.186 17.0513C166.331 16.2797 165.263 15.905 164.019 15.905V16.905ZM166.521 17.7977C167.183 18.3812 167.518 19.1088 167.534 20.0163L168.534 19.9987C168.513 18.8162 168.059 17.8205 167.182 17.0473L166.521 17.7977ZM167.534 20.0075V29H168.534V20.0075H167.534ZM168.034 28.5H164.184V29.5H168.034V28.5ZM164.684 29V21.4375H163.684V29H164.684ZM164.683 21.4141C164.652 20.7546 164.468 20.176 164.056 19.7639C163.64 19.3479 163.068 19.1775 162.424 19.1775V20.1775C162.898 20.1775 163.178 20.3004 163.349 20.4711C163.523 20.6456 163.66 20.9471 163.684 21.4609L164.683 21.4141ZM162.424 19.1775C161.352 19.1775 160.497 19.6958 159.886 20.6441L160.726 21.1859C161.179 20.4842 161.736 20.1775 162.424 20.1775V19.1775ZM159.886 20.6441C159.288 21.5723 159.009 22.7379 159.009 24.105H160.009C160.009 22.8687 160.261 21.9077 160.726 21.1859L159.886 20.6441ZM159.009 24.105V29H160.009V24.105H159.009ZM159.509 28.5H155.659V29.5H159.509V28.5ZM156.159 29V7.3025H155.159V29H156.159ZM155.659 7.8025H159.426V6.8025H155.659V7.8025ZM158.926 7.3025V18.88H159.926V7.3025H158.926ZM159.86 19.1281C160.256 18.4356 160.797 17.8948 161.489 17.4991L160.993 16.6309C160.146 17.1152 159.476 17.7844 158.992 18.6319L159.86 19.1281ZM161.485 17.5016C162.186 17.11 163.025 16.905 164.019 16.905V15.905C162.885 15.905 161.873 16.14 160.998 16.6284L161.485 17.5016ZM175.964 11.7025H176.464V11.2025H175.964V11.7025ZM175.964 16.9275H175.464V17.4275H175.964V16.9275ZM178.879 16.9275H179.379V16.4275H178.879V16.9275ZM178.879 19.925V20.425H179.379V19.925H178.879ZM175.964 19.925V19.425H175.464V19.925H175.964ZM175.964 29V29.5H176.464V29H175.964ZM172.114 29H171.614V29.5H172.114V29ZM172.114 19.925H172.614V19.425H172.114V19.925ZM170.244 19.925H169.744V20.425H170.244V19.925ZM170.244 16.9275V16.4275H169.744V16.9275H170.244ZM172.114 16.9275V17.4275H172.614V16.9275H172.114ZM172.114 11.7025V11.2025H171.614V11.7025H172.114ZM175.464 11.7025V16.9275H176.464V11.7025H175.464ZM175.964 17.4275H178.879V16.4275H175.964V17.4275ZM178.379 16.9275V19.925H179.379V16.9275H178.379ZM178.879 19.425H175.964V20.425H178.879V19.425ZM175.464 19.925V29H176.464V19.925H175.464ZM175.964 28.5H172.114V29.5H175.964V28.5ZM172.614 29V19.925H171.614V29H172.614ZM172.114 19.425H170.244V20.425H172.114V19.425ZM170.744 19.925V16.9275H169.744V19.925H170.744ZM170.244 17.4275H172.114V16.4275H170.244V17.4275ZM172.614 16.9275V11.7025H171.614V16.9275H172.614ZM172.114 12.2025H175.964V11.2025H172.114V12.2025ZM192.002 17.4225L191.667 17.7937L191.672 17.7977L192.002 17.4225ZM193.185 20.0075H193.685L193.685 19.9987L193.185 20.0075ZM193.185 29V29.5H193.685V29H193.185ZM189.335 29H188.835V29.5H189.335V29ZM189.335 21.4375H189.835V21.4258L189.834 21.4141L189.335 21.4375ZM185.457 20.915L185.877 21.1859V21.1859L185.457 20.915ZM184.66 29V29.5H185.16V29H184.66ZM180.81 29H180.31V29.5H180.81V29ZM180.81 7.3025V6.8025H180.31V7.3025H180.81ZM184.577 7.3025H185.077V6.8025H184.577V7.3025ZM184.577 18.88H184.077V20.7628L185.011 19.1281L184.577 18.88ZM186.392 17.065L186.148 16.6284L186.144 16.6309L186.392 17.065ZM189.17 16.905C190.199 16.905 191.019 17.2086 191.667 17.7937L192.337 17.0513C191.482 16.2797 190.414 15.905 189.17 15.905V16.905ZM191.672 17.7977C192.334 18.3812 192.669 19.1088 192.685 20.0163L193.685 19.9987C193.664 18.8162 193.21 17.8205 192.333 17.0473L191.672 17.7977ZM192.685 20.0075V29H193.685V20.0075H192.685ZM193.185 28.5H189.335V29.5H193.185V28.5ZM189.835 29V21.4375H188.835V29H189.835ZM189.834 21.4141C189.803 20.7546 189.619 20.176 189.207 19.7639C188.791 19.3479 188.219 19.1775 187.575 19.1775V20.1775C188.049 20.1775 188.329 20.3004 188.5 20.4711C188.674 20.6456 188.811 20.9471 188.835 21.4609L189.834 21.4141ZM187.575 19.1775C186.503 19.1775 185.648 19.6958 185.037 20.6441L185.877 21.1859C186.33 20.4842 186.886 20.1775 187.575 20.1775V19.1775ZM185.037 20.6441C184.439 21.5723 184.16 22.7379 184.16 24.105H185.16C185.16 22.8687 185.412 21.9077 185.877 21.1859L185.037 20.6441ZM184.16 24.105V29H185.16V24.105H184.16ZM184.66 28.5H180.81V29.5H184.66V28.5ZM181.31 29V7.3025H180.31V29H181.31ZM180.81 7.8025H184.577V6.8025H180.81V7.8025ZM184.077 7.3025V18.88H185.077V7.3025H184.077ZM185.011 19.1281C185.407 18.4356 185.948 17.8948 186.64 17.4991L186.144 16.6309C185.297 17.1152 184.627 17.7844 184.143 18.6319L185.011 19.1281ZM186.636 17.5016C187.337 17.11 188.176 16.905 189.17 16.905V15.905C188.036 15.905 187.023 16.14 186.148 16.6284L186.636 17.5016ZM204.525 25.26L204.955 25.004L204.69 24.5592L204.254 24.8397L204.525 25.26ZM206.23 28.12L206.473 28.5571L206.924 28.3067L206.66 27.864L206.23 28.12ZM204.14 29L203.997 28.5211L204.14 29ZM198.338 28.5325L198.102 28.9733L198.111 28.9781L198.338 28.5325ZM196 26.25L195.56 26.4866L195.562 26.49L196 26.25ZM196.11 19.6225L195.687 19.3561L195.684 19.3618L196.11 19.6225ZM198.64 17.285L198.876 17.726L198.882 17.7228L198.64 17.285ZM206.368 17.9175L206.03 18.2861L206.033 18.2888L206.368 17.9175ZM208.54 22.235L208.692 22.7114L209.109 22.5786L209.033 22.1481L208.54 22.235ZM199.74 25.04L199.588 24.5636L198.866 24.7938L199.362 25.3671L199.74 25.04ZM199.768 20.2825L200.144 20.6118L199.768 20.2825ZM198.998 22.895H198.498V23.5921L199.158 23.3686L198.998 22.895ZM204.278 21.1075L204.438 21.5811L204.912 21.4207L204.751 20.9471L204.278 21.1075ZM202.133 26.5575C203.022 26.5575 203.912 26.2498 204.796 25.6803L204.254 24.8397C203.488 25.3335 202.783 25.5575 202.133 25.5575V26.5575ZM204.096 25.516L205.801 28.376L206.66 27.864L204.955 25.004L204.096 25.516ZM205.987 27.6829C205.359 28.0319 204.696 28.3113 203.997 28.5211L204.284 29.4789C205.051 29.2487 205.781 28.9415 206.473 28.5571L205.987 27.6829ZM203.997 28.5211C203.303 28.7293 202.654 28.83 202.05 28.83V29.83C202.766 29.83 203.511 29.7107 204.284 29.4789L203.997 28.5211ZM202.05 28.83C200.682 28.83 199.525 28.5758 198.564 28.0869L198.111 28.9781C199.24 29.5525 200.558 29.83 202.05 29.83V28.83ZM198.574 28.0918C197.628 27.5851 196.921 26.892 196.439 26.01L195.562 26.49C196.142 27.5513 196.994 28.3799 198.102 28.9732L198.574 28.0918ZM196.441 26.0134C195.953 25.1049 195.703 24.0605 195.703 22.8675H194.703C194.703 24.2045 194.984 25.4151 195.56 26.4866L196.441 26.0134ZM195.703 22.8675C195.703 21.7851 195.98 20.7938 196.537 19.8832L195.684 19.3618C195.03 20.4312 194.703 21.6033 194.703 22.8675H195.703ZM196.533 19.8889C197.109 18.9747 197.887 18.2547 198.876 17.726L198.405 16.844C197.267 17.452 196.358 18.2903 195.687 19.3561L196.533 19.8889ZM198.882 17.7228C199.868 17.1787 200.949 16.905 202.133 16.905V15.905C200.787 15.905 199.539 16.218 198.399 16.8472L198.882 17.7228ZM202.133 16.905C203.752 16.905 205.036 17.3753 206.03 18.2861L206.706 17.5489C205.499 16.443 203.96 15.905 202.133 15.905V16.905ZM206.033 18.2888C207.049 19.2049 207.732 20.5325 208.048 22.3219L209.033 22.1481C208.688 20.1975 207.923 18.6467 206.703 17.5462L206.033 18.2888ZM208.388 21.7586L199.588 24.5636L199.892 25.5164L208.692 22.7114L208.388 21.7586ZM199.362 25.3671C200.056 26.1696 200.999 26.5575 202.133 26.5575V25.5575C201.249 25.5575 200.598 25.267 200.118 24.7129L199.362 25.3671ZM201.83 18.9025C200.841 18.9025 200.01 19.2459 199.391 19.9532L200.144 20.6118C200.552 20.1458 201.096 19.9025 201.83 19.9025V18.9025ZM199.391 19.9532C198.779 20.6536 198.498 21.5701 198.498 22.6475H199.498C199.498 21.7449 199.73 21.0848 200.144 20.6118L199.391 19.9532ZM198.498 22.6475V22.895H199.498V22.6475H198.498ZM199.158 23.3686L204.438 21.5811L204.117 20.6339L198.837 22.4214L199.158 23.3686ZM204.751 20.9471C204.532 20.299 204.175 19.7755 203.663 19.4185C203.152 19.0626 202.53 18.9025 201.83 18.9025V19.9025C202.377 19.9025 202.786 20.0266 203.091 20.239C203.395 20.4503 203.639 20.7793 203.804 21.2679L204.751 20.9471Z" fill="#2E469D"/>
</g>
</g>
</svg>
