<svg width="225" height="279" viewBox="0 0 225 279" fill="none" xmlns="http://www.w3.org/2000/svg">
<path fill-rule="evenodd" clip-rule="evenodd" d="M136.863 141.892C97.5608 141.892 65.7002 110.128 65.7002 70.9458C65.7002 31.7635 97.5608 0 136.863 0C176.165 0 208.025 31.7635 208.025 70.9458C208.025 110.128 176.165 141.892 136.863 141.892Z" fill="#F0F4F8"/>
<path fill-rule="evenodd" clip-rule="evenodd" d="M112.5 271C54.7862 271 8 224.356 8 166.818C8 109.28 54.7862 62.6368 112.5 62.6368C170.214 62.6368 217 109.28 217 166.818C217 224.356 170.214 271 112.5 271Z" stroke="#D8F1F5" stroke-width="16"/>
<path fill-rule="evenodd" clip-rule="evenodd" d="M35.6359 215.879L22.1035 260.774L61.852 243.287V223.703L35.6359 215.879Z" fill="#F2BC75"/>
<path d="M77.8809 182.158V200.069H61.7037V216.769H45.86V238.189H23.4672" stroke="#66AFB4" stroke-width="1.92" stroke-linecap="round" stroke-linejoin="round"/>
<path d="M35.0059 224.128V206.217H51.183V189.517H67.0267V168.097H89.4195" stroke="#66AFB4" stroke-width="1.92" stroke-linecap="round" stroke-linejoin="round"/>
</svg>
