<svg width="142" height="170" viewBox="0 0 142 170" fill="none" xmlns="http://www.w3.org/2000/svg">
<path d="M40.32 118.91L40.05 46.91L131.81 46.54L131.1 121.78H108.36L86.43 99.44L86.7 91.44C86.7 91.44 97.79 79.79 91.32 69.18C84.85 58.57 88.92 59.93 88.92 59.93C88.92 59.93 72.07 56.79 66.25 64.37C66.25 64.37 59.87 68.44 68.56 85.28L72.11 91.91L72.82 94.25L72.39 98.93C72.39 98.93 58 101 49.57 118.91H40.32Z" fill="#F17EA5"/>
<path d="M140.19 150.89H98.49C97.6616 150.89 96.99 150.218 96.99 149.39C96.99 148.562 97.6616 147.89 98.49 147.89H138.71V24.68H21.33V147.93H61.55C62.3784 147.93 63.05 148.602 63.05 149.43C63.05 150.258 62.3784 150.93 61.55 150.93H19.85C19.0326 150.93 18.37 150.267 18.37 149.45V23.2C18.37 22.3826 19.0326 21.72 19.85 21.72H140.19C141.007 21.72 141.67 22.3826 141.67 23.2V149.41C141.67 150.227 141.007 150.89 140.19 150.89Z" fill="#2E469D"/>
<path fill-rule="evenodd" clip-rule="evenodd" d="M32.67 121.7H125.59C126.403 121.7 127.065 121.043 127.07 120.23V40.48C127.07 39.6626 126.407 39 125.59 39H32.67C31.8565 39 31.1955 39.6565 31.19 40.47V120.22C31.19 121.037 31.8526 121.7 32.67 121.7ZM124.15 118.7H34.15V42H124.15V118.7Z" fill="#2E469D"/>
<path fill-rule="evenodd" clip-rule="evenodd" d="M60 150C60 161.046 68.9543 170 80 170C91.0457 170 100 161.046 100 150C100 138.954 91.0457 130 80 130C68.9543 130 60 138.954 60 150ZM63 150C63 140.611 70.6112 133 80 133C89.3888 133 97 140.611 97 150C97 159.389 89.3888 167 80 167C70.6112 167 63 159.389 63 150Z" fill="#2E469D"/>
<path d="M84.19 148.87C83.7135 148.869 83.2669 148.638 82.99 148.25L79.99 144.14L76.99 148.25C76.6883 148.698 76.1667 148.946 75.629 148.897C75.0913 148.848 74.6229 148.51 74.4066 148.016C74.1904 147.521 74.2607 146.948 74.59 146.52L78.76 140.75C79.0523 140.387 79.4936 140.175 79.96 140.175C80.4264 140.175 80.8677 140.387 81.16 140.75L85.33 146.52C85.6575 146.971 85.7041 147.567 85.4508 148.063C85.1975 148.559 84.687 148.871 84.13 148.87H84.19Z" fill="#2E469D"/>
<path d="M80 159.73C79.1826 159.73 78.52 159.067 78.52 158.25V142.25C78.52 141.422 79.1916 140.75 80.02 140.75C80.8484 140.75 81.52 141.422 81.52 142.25V158.25C81.5201 158.65 81.3587 159.032 81.0725 159.311C80.7862 159.59 80.3994 159.741 80 159.73Z" fill="#2E469D"/>
<rect x="0.0867462" y="26.9174" width="43.69" height="22.04" transform="rotate(-37.95 0.0867462 26.9174)" fill="#F9CF57"/>
<path d="M66.9 81.17C66.9 81.17 64.77 65 76.92 61.56C78.39 61.15 79.92 60.78 81.33 60.29C85.01 59.03 92.43 57.13 95.33 61.09C99.21 66.46 99.47 72.09 93.75 74.75C88.03 77.41 84 70 80.16 71.07C76.32 72.14 69.77 78.76 66.9 81.17Z" fill="#F9CF57"/>
<path d="M79.06 94.64C72.49 94.64 66.77 90.13 64.82 83.41C64.5936 82.623 65.048 81.8015 65.835 81.575C66.622 81.3486 67.4436 81.803 67.67 82.59C69.24 88.03 73.82 91.68 79.06 91.68C85.64 91.68 90.99 85.85 90.99 78.68C90.9909 77.7945 90.9106 76.9108 90.75 76.04C90.6518 75.5202 90.8383 74.9875 91.2393 74.6425C91.6404 74.2975 92.195 74.1926 92.6943 74.3675C93.1936 74.5423 93.5618 74.9702 93.66 75.49C93.8516 76.5426 93.9486 77.6102 93.95 78.68C94 87.48 87.27 94.64 79.06 94.64Z" fill="#2E469D"/>
<path fill-rule="evenodd" clip-rule="evenodd" d="M66.25 85.32C66.3397 85.3298 66.4303 85.3298 66.52 85.32C66.9401 85.3347 67.3469 85.1713 67.64 84.87C69.2812 82.9366 70.7722 80.8806 72.1 78.72C73.81 76.06 76.56 73.06 79.18 72.62C80.2536 72.4379 81.3527 72.742 82.18 73.45C85.6 76.1 90.8 77.23 94.52 76.1C96.7999 75.4971 98.623 73.7868 99.37 71.55C100.656 67.7232 99.9956 63.5096 97.6 60.26C96.14 58.46 93.39 56.41 88.65 56.93C87.52 57.09 86.02 57.09 84.27 57.09L84.2507 57.0902C77.5424 57.1602 68.356 57.256 64.15 63.51C61.07 68.11 61.39 74.95 65.15 84.41C65.3299 84.8865 65.7482 85.2326 66.25 85.32ZM88.97 59.85C89.3481 59.8024 89.7289 59.779 90.11 59.78C92.1043 59.6901 94.0242 60.5463 95.29 62.09C97.0532 64.5514 97.5257 67.7104 96.56 70.58C96.1153 71.9008 95.0243 72.9012 93.67 73.23C90.83 74.08 86.68 73.17 84 71.08C82.5099 69.8479 80.5538 69.3324 78.65 69.67C74.29 70.41 70.85 75.09 69.58 77.09C68.53 78.72 67.66 79.96 66.99 80.87C64.52 73.73 64.39 68.44 66.61 65.13C69.95 60.17 78.25 60.08 84.31 60.02C84.4053 60.019 84.4999 60.0179 84.5939 60.0169C86.2845 59.9986 87.7574 59.9826 88.97 59.85Z" fill="#2E469D"/>
<path d="M83.22 98.39H83.08C60.34 100.14 57.94 120.22 57.94 120.22H108.36C108.36 120.22 106 100.14 83.22 98.39Z" fill="#1BDFC7"/>
<path fill-rule="evenodd" clip-rule="evenodd" d="M48.9408 121.184C49.2211 121.511 49.6297 121.699 50.06 121.7H108.36V121.68C108.788 121.681 109.196 121.497 109.477 121.175C109.759 120.852 109.888 120.424 109.83 120C109.8 119.79 106.59 98.76 79.51 96.9C79.4203 96.8893 79.3297 96.8893 79.24 96.9C79.1071 96.8848 78.9729 96.8848 78.84 96.9C51.83 98.81 48.6 119.79 48.6 120C48.536 120.426 48.6604 120.858 48.9408 121.184ZM51.9417 118.7H51.93V118.74C51.9339 118.727 51.9378 118.713 51.9417 118.7ZM51.9417 118.7H106.52C105.21 114.01 99.78 101.2 79.21 99.82C58.9178 101.226 53.3218 113.997 51.9417 118.7Z" fill="#2E469D"/>
<path d="M73.5 100.37C73.104 100.375 72.7224 100.222 72.4405 99.9436C72.1586 99.6655 72 99.286 72 98.89V92.37C72 91.5416 72.6716 90.87 73.5 90.87C74.3284 90.87 75 91.5416 75 92.37V98.89C75 99.286 74.8414 99.6655 74.5595 99.9436C74.2776 100.222 73.896 100.375 73.5 100.37Z" fill="#2E469D"/>
<path d="M85.46 100.11C85.0675 100.11 84.691 99.9541 84.4135 99.6765C84.1359 99.399 83.98 99.0225 83.98 98.63V91.4C83.98 90.5716 84.6516 89.9 85.48 89.9C86.3084 89.9 86.98 90.5716 86.98 91.4V98.63C86.9802 99.0296 86.8187 99.4122 86.5325 99.6909C86.2462 99.9697 85.8594 100.121 85.46 100.11Z" fill="#2E469D"/>
</svg>
