<svg width="144" height="122" viewBox="0 0 144 122" fill="none" xmlns="http://www.w3.org/2000/svg">
<path fill-rule="evenodd" clip-rule="evenodd" d="M2.39 121.2H141.61C142.427 121.2 143.09 120.537 143.09 119.72V2.07003C143.09 1.25265 142.427 0.590027 141.61 0.590027H2.39C1.57262 0.590027 0.910004 1.25265 0.910004 2.07003V119.72C0.910004 120.537 1.57262 121.2 2.39 121.2ZM140.13 118.2H3.87V3.55003H140.13V118.2Z" fill="#2E469D"/>
<path d="M14.73 18.01C17.1048 18.01 19.03 16.0848 19.03 13.71C19.03 11.3351 17.1048 9.40997 14.73 9.40997C12.3552 9.40997 10.43 11.3351 10.43 13.71C10.43 16.0848 12.3552 18.01 14.73 18.01Z" fill="#F17EA5"/>
<path d="M28.83 18.01C31.2049 18.01 33.13 16.0848 33.13 13.71C33.13 11.3351 31.2049 9.40997 28.83 9.40997C26.4552 9.40997 24.53 11.3351 24.53 13.71C24.53 16.0848 26.4552 18.01 28.83 18.01Z" fill="#F9CF57"/>
<path d="M42.46 18.01C44.8348 18.01 46.76 16.0848 46.76 13.71C46.76 11.3351 44.8348 9.40997 42.46 9.40997C40.0851 9.40997 38.16 11.3351 38.16 13.71C38.16 16.0848 40.0851 18.01 42.46 18.01Z" fill="#1BDFC7"/>
<path d="M132.87 27.5H8.59003C7.7616 27.5 7.09003 26.8284 7.09003 26C7.09003 25.1716 7.7616 24.5 8.59003 24.5H132.87C133.698 24.5 134.37 25.1716 134.37 26C134.37 26.8284 133.698 27.5 132.87 27.5Z" fill="#2E469D"/>
<path d="M30.5 80.16H17.4C16.5849 80.1545 15.9255 79.4951 15.92 78.68V52.49C15.9174 52.0957 16.0721 51.7167 16.3499 51.437C16.6278 51.1573 17.0058 51 17.4 51H43.59C43.9825 51 44.359 51.1559 44.6365 51.4335C44.9141 51.711 45.07 52.0875 45.07 52.48V65C45.07 65.8284 44.3984 66.5 43.57 66.5C42.7416 66.5 42.07 65.8284 42.07 65V54H18.88V77.2H30.5C31.3284 77.2 32 77.8716 32 78.7C32 79.5284 31.3284 80.2 30.5 80.2V80.16Z" fill="#2E469D"/>
<path d="M48.28 65.58V56.24H22.09V82.43H30.5V65.58H48.28Z" fill="#1BDFC7"/>
<rect x="35.18" y="69.33" width="26.19" height="26.19" fill="#F9CF57"/>
<path fill-rule="evenodd" clip-rule="evenodd" d="M30.5 92.7H56.69C57.0878 92.7001 57.4688 92.5401 57.7473 92.256C58.0257 91.9719 58.1781 91.5877 58.17 91.19V65C58.17 64.1826 57.5074 63.52 56.69 63.52H30.48C29.6626 63.52 29 64.1826 29 65V91.22C29.0026 91.6152 29.1622 91.9931 29.4435 92.2707C29.7248 92.5482 30.1048 92.7027 30.5 92.7ZM55.21 89.7H31.98L32 66.51H55.21V89.7Z" fill="#2E469D"/>
<path d="M124.7 62H99.16C98.3316 62 97.66 61.3284 97.66 60.5C97.66 59.6716 98.3316 59 99.16 59H124.7C125.528 59 126.2 59.6716 126.2 60.5C126.2 61.3284 125.528 62 124.7 62Z" fill="#2E469D"/>
<path d="M83.73 62H73.73C72.9016 62 72.23 61.3284 72.23 60.5C72.23 59.6716 72.9016 59 73.73 59H83.73C84.5584 59 85.23 59.6716 85.23 60.5C85.23 61.3284 84.5584 62 83.73 62Z" fill="#2E469D"/>
<path d="M124.7 84.84H119C118.172 84.84 117.5 84.1684 117.5 83.34C117.5 82.5115 118.172 81.84 119 81.84H124.67C125.498 81.84 126.17 82.5115 126.17 83.34C126.17 84.1684 125.498 84.84 124.67 84.84H124.7Z" fill="#2E469D"/>
<path d="M94.41 70.32C98.6681 70.32 102.12 66.8681 102.12 62.61C102.12 58.3519 98.6681 54.9 94.41 54.9C90.1519 54.9 86.7 58.3519 86.7 62.61C86.7 66.8681 90.1519 70.32 94.41 70.32Z" fill="#1BDFC7"/>
<path d="M103.6 84.84H73.69C72.8616 84.84 72.19 84.1684 72.19 83.34C72.19 82.5115 72.8616 81.84 73.69 81.84H103.6C104.428 81.84 105.1 82.5115 105.1 83.34C105.1 84.1684 104.428 84.84 103.6 84.84Z" fill="#2E469D"/>
<path fill-rule="evenodd" clip-rule="evenodd" d="M82.9432 64.0276C84.3703 67.4651 87.7281 69.7041 91.45 69.7C96.5248 69.689 100.635 65.5748 100.64 60.5C100.64 56.778 98.3974 53.4228 94.9584 51.9994C91.5194 50.576 87.5615 51.3649 84.9311 53.9982C82.3007 56.6314 81.5161 60.5901 82.9432 64.0276ZM85.6769 58.1174C86.6453 55.7848 88.9244 54.266 91.45 54.27C94.8862 54.281 97.669 57.0638 97.68 60.5C97.6841 63.0257 96.1652 65.3047 93.8326 66.2731C91.4999 67.2415 88.8136 66.7083 87.0277 64.9223C85.2418 63.1364 84.7085 60.4501 85.6769 58.1174Z" fill="#2E469D"/>
<path d="M114.15 93.12C118.408 93.12 121.86 89.6681 121.86 85.41C121.86 81.1519 118.408 77.7 114.15 77.7C109.892 77.7 106.44 81.1519 106.44 85.41C106.44 89.6681 109.892 93.12 114.15 93.12Z" fill="#F9CF57"/>
<path fill-rule="evenodd" clip-rule="evenodd" d="M102.83 86.8769C104.252 90.3109 107.603 92.55 111.32 92.55C116.391 92.539 120.499 88.4309 120.51 83.36C120.51 79.643 118.271 76.292 114.837 74.8696C111.403 73.4471 107.45 74.2334 104.822 76.8617C102.193 79.49 101.407 83.4428 102.83 86.8769ZM105.564 80.9759C106.529 78.6479 108.8 77.13 111.32 77.13C114.758 77.1355 117.545 79.9216 117.55 83.36C117.55 85.8798 116.032 88.1515 113.704 89.1158C111.376 90.0801 108.697 89.547 106.915 87.7653C105.133 85.9835 104.6 83.3039 105.564 80.9759Z" fill="#2E469D"/>
</svg>
