<svg width="166" height="138" viewBox="0 0 166 138" fill="none" xmlns="http://www.w3.org/2000/svg">
<rect x="133.36" y="87.4" width="31.86" height="36.09" fill="#F9CF57"/>
<path fill-rule="evenodd" clip-rule="evenodd" d="M23.33 137.7H152.78C153.59 137.717 154.263 137.08 154.29 136.27V58.82C154.289 58.2814 153.994 57.7865 153.52 57.53C153.052 57.25 152.468 57.25 152 57.53L88.05 98.73L24.13 57.48C23.6657 57.1995 23.0842 57.1995 22.62 57.48C22.1432 57.7332 21.8465 58.2302 21.85 58.77V136.22C21.85 137.037 22.5126 137.7 23.33 137.7ZM151.3 134.7H24.78L24.81 61.49L87.25 101.78C87.735 102.101 88.3649 102.101 88.85 101.78L151.3 61.49V134.7Z" fill="#2E469D"/>
<path d="M53.38 78.66H53.11C52.3054 78.5083 51.774 77.7357 51.92 76.93L62 22.76C62.1517 21.9608 62.9198 21.4338 63.72 21.58L138.86 35.58C139.246 35.6528 139.587 35.876 139.809 36.2004C140.03 36.5249 140.113 36.9241 140.04 37.31L133.49 72.36C133.4 72.8864 133.034 73.3236 132.532 73.5042C132.029 73.6848 131.468 73.5807 131.064 73.2319C130.66 72.883 130.475 72.3435 130.58 71.82L136.86 38.22L64.68 24.76L54.83 77.45C54.7003 78.1494 54.0913 78.6575 53.38 78.66Z" fill="#2E469D"/>
<path d="M42.86 72.86C42.0804 72.8562 41.4374 72.2482 41.39 71.47L38.45 24.15C38.4299 23.7588 38.5626 23.3752 38.82 23.08C39.0768 22.7927 39.4356 22.6169 39.82 22.59L94 19.23C94.8284 19.1775 95.5425 19.8066 95.595 20.635C95.6475 21.4634 95.0184 22.1775 94.19 22.23L41.5 25.45L44.34 71.29C44.3922 72.0898 43.7981 72.7859 43 72.86H42.86Z" fill="#2E469D"/>
<path d="M117.07 34.53C116.288 34.5265 115.642 33.9198 115.59 33.14L114.84 20.9L94.14 22.19C93.3116 22.2425 92.5975 21.6135 92.545 20.785C92.4925 19.9566 93.1216 19.2425 93.95 19.19L116.13 17.82C116.521 17.7978 116.906 17.9307 117.2 18.19C117.492 18.4445 117.672 18.8039 117.7 19.19L118.55 33C118.595 33.8142 117.974 34.5117 117.16 34.56L117.07 34.53Z" fill="#2E469D"/>
<path d="M152.78 60.26C152.411 60.2634 152.054 60.1278 151.78 59.88L136.15 46.08C135.537 45.5277 135.488 44.583 136.04 43.97C136.592 43.357 137.537 43.3077 138.15 43.86L153.78 57.67C154.245 58.0796 154.405 58.7353 154.182 59.3132C153.959 59.8911 153.399 60.2689 152.78 60.26Z" fill="#2E469D"/>
<path d="M125.43 36.09C125.063 36.0933 124.707 35.9616 124.43 35.72L115.71 28C115.313 27.6427 115.138 27.101 115.249 26.579C115.36 26.0569 115.741 25.6338 116.249 25.469C116.756 25.3042 117.313 25.4227 117.71 25.78L126.45 33.51C126.915 33.9196 127.075 34.5753 126.852 35.1532C126.629 35.7311 126.069 36.1089 125.45 36.1L125.43 36.09Z" fill="#2E469D"/>
<path d="M63.49 24.52C63.0613 24.5193 62.655 24.3289 62.38 24C62.1211 23.7044 61.9904 23.318 62.0167 22.926C62.0429 22.5339 62.224 22.1684 62.52 21.91L87.08 0.439984C87.6476 -0.0739075 88.5124 -0.0739075 89.08 0.439984L109.18 18.21C109.575 18.5672 109.749 19.108 109.637 19.6285C109.525 20.149 109.144 20.5703 108.637 20.7335C108.13 20.8968 107.575 20.7773 107.18 20.42L88.06 3.51998L64.47 24.15C64.2004 24.3903 63.8512 24.5221 63.49 24.52Z" fill="#2E469D"/>
<path d="M23.33 60.26C22.7106 60.2689 22.1512 59.8911 21.9281 59.3132C21.705 58.7353 21.8653 58.0796 22.33 57.67L39.67 42.35C40.0665 41.9927 40.6236 41.8742 41.1313 42.039C41.639 42.2038 42.0202 42.6269 42.1313 43.149C42.2424 43.671 42.0665 44.2127 41.67 44.57L24.31 59.88C24.0394 60.1199 23.6916 60.2548 23.33 60.26Z" fill="#2E469D"/>
<path d="M63.12 85.24H62.84C62.038 85.0788 61.5131 84.3047 61.66 83.5L70.57 36.73C70.6404 36.3448 70.8616 36.0036 71.1845 35.7821C71.5074 35.5606 71.9053 35.477 72.29 35.55L125.7 45.3C126.497 45.4422 127.029 46.2023 126.89 47L121 80.49C120.859 81.2963 120.091 81.8358 119.285 81.695C118.479 81.5542 117.939 80.7863 118.08 79.98L123.74 47.98L73.2 38.7L64.57 84C64.4531 84.7113 63.8408 85.2349 63.12 85.24Z" fill="#2E469D"/>
<path d="M37.37 86.93H2.26001C1.43158 86.93 0.76001 86.2584 0.76001 85.43C0.76001 84.6016 1.43158 83.93 2.26001 83.93H37.37C38.1984 83.93 38.87 84.6016 38.87 85.43C38.87 86.2584 38.1984 86.93 37.37 86.93Z" fill="#F17EA5"/>
<path d="M37.37 96.78H2.26001C1.43158 96.78 0.76001 96.1085 0.76001 95.28C0.76001 94.4516 1.43158 93.78 2.26001 93.78H37.37C38.1984 93.78 38.87 94.4516 38.87 95.28C38.87 96.1085 38.1984 96.78 37.37 96.78Z" fill="#F17EA5"/>
<path d="M37.37 105.43H2.26001C1.43158 105.43 0.76001 104.758 0.76001 103.93C0.76001 103.102 1.43158 102.43 2.26001 102.43H37.37C38.1984 102.43 38.87 103.102 38.87 103.93C38.87 104.758 38.1984 105.43 37.37 105.43Z" fill="#F17EA5"/>
<path d="M84.49 66.54C84.49 66.54 85.49 54.08 95.2 53.49C96.37 53.41 97.55 53.39 98.72 53.25C101.72 52.91 107.55 52.7 109.05 56.14C111.05 60.79 110.37 65.02 105.63 66.14C100.89 67.26 99.13 60.98 96.07 61.14C93.01 61.3 87 65.2 84.49 66.54Z" fill="#F9CF57"/>
<path d="M93.68 79.21C92.8861 79.212 92.0944 79.1248 91.32 78.95C86.1648 77.7361 82.4464 73.2413 82.22 67.95C82.1685 67.1339 82.7844 66.4287 83.6 66.37C84.4124 66.3293 85.111 66.9395 85.18 67.75C85.2999 71.742 88.0701 75.1628 91.95 76.11C96.68 77.11 101.48 73.77 102.61 68.58C102.753 67.9223 102.833 67.2527 102.85 66.58C102.866 65.776 103.526 65.1344 104.33 65.14C104.723 65.1505 105.095 65.3165 105.365 65.6016C105.635 65.8867 105.781 66.2674 105.77 66.66C105.747 67.5046 105.643 68.3451 105.46 69.17C104.354 74.8534 99.4669 79.0183 93.68 79.21Z" fill="#2E469D"/>
<path fill-rule="evenodd" clip-rule="evenodd" d="M82.31 68.76C82.4155 69.4817 83.0407 70.0127 83.77 70C84.084 70.0131 84.3935 69.9217 84.65 69.74C86.2196 68.5537 87.6911 67.2428 89.05 65.82C91.13 63.7 93.4 62.43 95.05 62.5C95.7976 62.5349 96.4906 62.9016 96.94 63.5C99.2002 66.1777 102.546 67.6947 106.05 67.63C107.966 67.5337 109.707 66.4868 110.69 64.84C112.339 62.0815 112.537 58.6916 111.22 55.76C109.953 53.3463 107.512 51.7747 104.79 51.62C103.94 51.53 102.82 51.3 101.52 51.03C96.4 49.96 89.39 48.51 85.08 52.64C81.93 55.66 81.02 60.94 82.31 68.76ZM87.16 54.77C88.8403 53.3851 90.9879 52.6979 93.16 52.85V52.8C95.761 52.8886 98.3468 53.2336 100.88 53.83C100.959 53.8462 101.038 53.8624 101.117 53.8784C102.387 54.1385 103.498 54.3658 104.44 54.46C106.16 54.504 107.723 55.4708 108.53 56.99C109.402 59.0175 109.242 61.3412 108.1 63.23C107.612 64.0555 106.729 64.567 105.77 64.58C103.234 64.544 100.835 63.4226 99.18 61.5C98.1901 60.2969 96.7364 59.57 95.18 59.5C91.73 59.35 88.22 62.36 86.91 63.67C86.15 64.52 85.47 65.16 84.91 65.67C84.36 60.39 85.16 56.77 87.16 54.77Z" fill="#2E469D"/>
<path d="M87.43 82.57C87.3239 82.5847 87.2162 82.5847 87.11 82.57C86.3123 82.3955 85.8067 81.608 85.98 80.81L87.05 75.93C87.1453 75.3963 87.5248 74.9574 88.0392 74.7861C88.5535 74.6147 89.1204 74.7383 89.5168 75.1082C89.9131 75.4781 90.0755 76.0351 89.94 76.56L88.87 81.44C88.7084 82.1039 88.1133 82.5709 87.43 82.57Z" fill="#2E469D"/>
<path d="M95.54 84.14C95.4372 84.1546 95.3328 84.1546 95.23 84.14C94.8451 84.0585 94.5084 83.827 94.2945 83.4967C94.0806 83.1665 94.007 82.7646 94.09 82.38L95.28 76.97C95.3502 76.5853 95.5718 76.2449 95.8951 76.025C96.2184 75.8051 96.6164 75.724 97 75.8C97.7977 75.9745 98.3033 76.7621 98.13 77.56L97 83C96.8374 83.6731 96.2324 84.1454 95.54 84.14Z" fill="#2E469D"/>
<path d="M75.85 92.45C80.22 87.6022 86.2068 84.5128 92.69 83.76C92.69 83.76 100.49 83.76 104.26 90.08L88 99.6L75.85 92.45Z" fill="#1BDFC7"/>
<path fill-rule="evenodd" clip-rule="evenodd" d="M87.25 100.87C87.476 101.008 87.7355 101.08 88 101.08C88.277 101.089 88.5508 101.02 88.79 100.88L105.1 91.36C105.44 91.1587 105.688 90.832 105.79 90.45C105.89 90.066 105.829 89.6575 105.62 89.32C101.52 82.46 91.94 81.2 91.62 81.2C77.3 78.66 70.88 88.87 70.62 89.31C70.412 89.6477 70.3472 90.0544 70.44 90.44C70.538 90.824 70.7868 91.1521 71.13 91.35L87.25 100.87ZM88 97.88L74 89.65C76.06 87.29 81.54 82.43 91.17 84.12C91.17 84.1205 91.1867 84.1231 91.2188 84.1282C91.8565 84.2283 98.5997 85.2875 102.17 89.61L88 97.88Z" fill="#2E469D"/>
</svg>
